<?xml version="1.0" encoding="UTF-8" standalone="no"?>
<!-- Created with Inkscape (http://www.inkscape.org/) -->

<svg class="img-fluid"
   width="165.37469mm"
   height="187.38141mm"
   viewBox="0 0 165.37469 187.38141"
   version="1.1"
   id="svg534"
   xml:space="preserve"
   sodipodi:docname="mfoudi.svg"
   inkscape:version="1.2.2 (732a01da63, 2022-12-09)"
   xmlns:inkscape="http://www.inkscape.org/namespaces/inkscape"
   xmlns:sodipodi="http://sodipodi.sourceforge.net/DTD/sodipodi-0.dtd"
   xmlns="http://www.w3.org/2000/svg"
   xmlns:svg="http://www.w3.org/2000/svg"><sodipodi:namedview
     id="namedview536"
     pagecolor="#ffffff"
     bordercolor="#000000"
     borderopacity="0.25"
     inkscape:showpageshadow="2"
     inkscape:pageopacity="0.0"
     inkscape:pagecheckerboard="0"
     inkscape:deskcolor="#d1d1d1"
     inkscape:document-units="mm"
     showgrid="false"
     inkscape:zoom="0.71624579"
     inkscape:cx="261.08356"
     inkscape:cy="479.58397"
     inkscape:window-width="1920"
     inkscape:window-height="991"
     inkscape:window-x="-9"
     inkscape:window-y="-9"
     inkscape:window-maximized="1"
     inkscape:current-layer="layer1" /><defs
     id="defs531" /><g
     inkscape:label="Calque 1"
     inkscape:groupmode="layer"
     id="layer1"
     transform="translate(-21.211637,-21.888788)"><path
       style="fill:#000000;stroke-width:0.318221"
       d="m 62.246783,178.1469 c -0.677118,-0.3457 -1.903409,-1.08708 -2.725092,-1.64753 -1.483897,-1.01211 -1.492438,-1.02881 -1.266981,-2.47834 0.181917,-1.1696 0.498885,-1.69315 1.596345,-2.63669 1.559702,-1.34097 1.763009,-2.36995 0.636994,-3.22394 -0.662225,-0.50224 -0.717767,-0.79279 -0.579962,-3.03379 0.119818,-1.94853 0.387752,-2.93676 1.253323,-4.62276 0.605506,-1.17943 1.100921,-2.52128 1.100921,-2.98188 0,-1.00458 0.98035,-1.62472 3.376345,-2.13578 1.653828,-0.35276 1.659963,-0.35864 1.763904,-1.68943 0.142414,-1.82337 0.771636,-2.22461 3.657166,-2.33202 2.317251,-0.0862 2.368904,-0.10585 3.094478,-1.17392 l 0.737892,-1.08622 -0.776613,-1.39213 c -0.731653,-1.31154 -0.74563,-1.45441 -0.241395,-2.4674 0.464272,-0.93272 1.237292,-1.42553 5.831276,-3.71753 4.087299,-2.03921 5.58657,-2.64227 6.568895,-2.64227 1.09406,0 1.376784,-0.14794 2.013117,-1.05335 l 0.740291,-1.05335 -0.966465,-1.02049 c -2.296777,-2.42517 -2.622578,-3.0199 -2.426327,-4.42916 0.231638,-1.66339 -0.04282,-2.94019 -0.631965,-2.94019 -0.252715,0 -0.382019,-0.22238 -0.296665,-0.51025 0.08576,-0.28931 -0.303863,-0.95212 -0.8999,-1.53074 -0.578172,-0.56128 -0.983605,-1.1517 -0.900995,-1.31207 0.08256,-0.16036 0.342104,-0.78555 0.576621,-1.38933 0.40285,-1.0371 0.368583,-1.1579 -0.620166,-2.18677 -0.659981,-0.68675 -1.401084,-1.12429 -2.006263,-1.18448 -0.594044,-0.0591 -1.026214,-0.30904 -1.134306,-0.65605 -0.09609,-0.3083 -0.312673,-0.56056 -0.481412,-0.56056 -0.168739,0 -0.306803,-0.20456 -0.306803,-0.45457 0,-0.26935 -0.163375,-0.36979 -0.400968,-0.24652 -0.255138,0.13238 -0.306397,0.0796 -0.140956,-0.14515 0.445607,-0.60528 -0.132811,-1.78599 -1.012483,-2.06677 -0.462229,-0.14753 -1.110682,-0.63492 -1.440999,-1.08308 -1.031086,-1.39886 -3.370177,-3.29318 -4.066431,-3.29318 -0.574652,0 -2.480121,-0.60607 -5.788501,-1.84115 -0.477546,-0.17827 -1.805994,-0.5258 -2.952104,-0.77224 -2.045049,-0.43976 -2.094161,-0.47421 -2.638288,-1.85091 -0.662158,-1.67531 -2.138204,-2.78992 -5.276732,-3.98463 -2.456724,-0.93516 -2.824852,-1.22337 -3.174009,-2.48496 -0.44993,-1.625712 -0.738665,-7.714052 -0.372087,-7.845962 6.792588,-2.44429 10.851054,-4.0986 12.045358,-4.90991 2.016257,-1.3697 6.202725,-3.24294 8.966689,-4.01217 1.241623,-0.34555 2.612501,-0.90544 3.046406,-1.2442 0.433893,-0.33875 0.980898,-0.64323 1.215563,-0.67661 0.863528,-0.12283 7.769619,-2.10724 9.312361,-2.67582 1.126801,-0.41528 1.723994,-0.85383 2.042905,-1.5002 0.247867,-0.50235 1.185172,-1.467776 2.082906,-2.145385 1.983071,-1.49683 2.294081,-1.964829 2.609721,-3.927056 0.26482,-1.646416 -0.1401,-3.623083 -1.24074,-6.056777 -0.36403,-0.804917 -0.66187,-2.124704 -0.66187,-2.932857 0,-1.173007 -0.25266,-1.818759 -1.252689,-3.20164 -1.803306,-2.493713 -1.883788,-3.480331 -0.415732,-5.09645 0.649966,-0.715522 1.293201,-1.545544 1.429411,-1.844494 0.19542,-0.428954 0.44808,-0.49889 1.19841,-0.331729 0.52292,0.1165 1.95802,0.275016 3.18907,0.352259 2.38448,0.149616 3.14496,-0.19941 3.14496,-1.443389 0,-0.778586 1.51407,-2.539831 2.583998,-3.005833 0.50157,-0.218457 0.83037,-0.286394 0.73067,-0.150972 -0.7136,0.969331 4.50513,1.484379 9.03981,0.89216 2.27835,-0.297548 3.59998,-0.310157 5.9658,-0.05692 2.89658,0.310051 7.50893,1.37872 9.16829,2.12426 0.42597,0.191388 1.55044,0.393623 2.49882,0.449411 1.92134,0.113021 2.73388,0.582833 3.37949,1.954054 0.66087,1.403576 1.29547,1.886078 2.75244,2.092728 2.06775,0.293282 3.96664,-0.676364 4.98578,-2.545941 0.56006,-1.027381 4.264,-3.454126 4.93978,-3.236426 0.39243,0.126428 0.44839,0.409613 0.2419,1.224041 -0.46244,1.823774 -0.26007,5.135339 0.38337,6.273688 0.61164,1.082082 1.70146,1.545008 2.89104,1.22804 1.1347,-0.302346 5.31325,1.953766 5.31325,2.868774 0,0.474504 -1.28134,2.799009 -1.69822,3.080804 -0.30003,0.202806 -1.08024,2.133051 -1.08024,2.672537 0,0.244398 -0.31849,0.686338 -0.70776,0.982089 -0.50694,0.385148 -0.65104,0.754617 -0.50781,1.302071 0.14355,0.548685 -0.002,0.917214 -0.5132,1.306166 -0.70735,0.537414 -0.70764,0.546765 -0.0363,1.148574 0.81163,0.727545 1.41774,1.988144 1.41774,2.948577 0,0.783027 2.13775,2.760656 2.98419,2.760656 0.29143,0 0.43329,0.13121 0.31523,0.29157 -0.118,0.16036 0.002,0.29157 0.26856,0.29157 0.37502,0 0.44786,0.37537 0.32531,1.67653 -0.1784,1.89427 -0.38182,2.20059 -1.78574,2.68879 -1.23061,0.42792 -1.49205,1.36693 -0.82983,2.98057 0.2707,0.65959 0.41222,1.37419 0.31449,1.58799 -0.0977,0.21381 0.0763,1.25238 0.38647,2.30796 0.52283,1.77859 0.52189,2.0318 -0.0127,3.45541 -0.74171,1.97533 -0.72738,2.68097 0.0834,4.10904 1.17616,2.07159 1.44343,3.633582 0.76922,4.495392 -0.32396,0.41408 -0.7548,1.01529 -0.95744,1.33603 -0.20264,0.32073 -0.78206,0.62462 -1.28763,0.67533 -0.95995,0.0963 -1.04603,0.25239 -1.41778,2.57165 -0.17686,1.10324 -0.0973,1.26704 0.93322,1.92273 0.61959,0.39422 1.36095,0.79241 1.64749,0.88488 0.46308,0.14946 0.46308,0.17124 0,0.19613 -0.92857,0.0499 -2.22669,3.15098 -2.15866,5.15678 l 0.0605,1.78568 -1.88227,1.49448 c -1.40058,1.11205 -2.14773,1.4945 -2.91969,1.4945 -0.77398,0 -1.30649,0.27405 -2.09704,1.07921 l -1.05962,1.0792 0.21846,2.99734 0.21845,2.99735 -1.52844,0.58218 c -0.84064,0.32019 -2.02619,0.58505 -2.63458,0.58857 -0.60837,0.004 -1.49884,0.13175 -1.97884,0.28496 -1.44887,0.46245 -2.68917,2.51065 -1.81493,2.99714 0.22107,0.12304 0.0437,0.21612 -0.41702,0.21868 -0.44106,0.003 -0.70885,0.13089 -0.59511,0.2854 0.11369,0.15451 -0.14537,0.57661 -0.57582,0.93799 -0.77883,0.65383 -2.10326,4.14266 -2.0545,5.41195 0.0197,0.5121 -0.13928,0.63261 -0.73388,0.55643 -0.41743,-0.0535 -0.82656,-0.26749 -0.9092,-0.47558 -0.0827,-0.20809 -0.007,-0.30411 0.16773,-0.21337 0.17487,0.0907 0.33616,-0.055 0.35845,-0.32388 0.0421,-0.50911 1.0417,-3.04386 1.53552,-3.89402 0.18029,-0.31038 0.13005,-0.53705 -0.13732,-0.61958 -0.32763,-0.10112 -0.32485,-0.21623 0.0126,-0.51645 0.36032,-0.32065 0.43414,-0.32015 0.43414,0.003 0,0.21407 0.31257,0.0556 0.69461,-0.35214 0.73545,-0.78492 0.90989,-1.23283 0.37131,-0.95338 -0.17783,0.0923 -0.40059,0.0628 -0.49502,-0.0655 -0.0945,-0.12827 0.28548,-0.5388 0.84427,-0.91228 0.93385,-0.62416 1.46987,-1.46647 0.66866,-1.05076 -0.19101,0.0991 -0.3473,0.0412 -0.3473,-0.12857 0,-0.16984 0.14919,-0.30879 0.33153,-0.30879 0.18233,0 0.69857,-0.30815 1.14718,-0.68476 0.60527,-0.50815 1.38881,-0.73921 3.03771,-0.89583 1.22212,-0.11607 2.48109,-0.32744 2.7977,-0.46969 0.77996,-0.35044 1.1016,-2.56313 0.63696,-4.38198 -0.36878,-1.44359 -0.35759,-1.47745 0.92069,-2.78709 0.71172,-0.72915 1.46824,-1.36946 1.6812,-1.42289 0.21296,-0.0535 0.79362,-0.17131 1.2904,-0.26192 0.49677,-0.0906 1.58154,-0.67013 2.41063,-1.28779 1.45734,-1.08575 1.51001,-1.18519 1.58587,-2.99399 0.0475,-1.13348 0.3579,-2.38809 0.78739,-3.183 l 0.70894,-1.31206 -0.76688,-0.18962 c -0.70107,-0.17334 -0.70725,-0.19222 -0.0722,-0.22013 0.61836,-0.0271 0.58626,-0.1033 -0.29245,-0.69362 -1.07035,-0.71908 -1.14724,-1.14681 -0.65457,-3.64159 0.34924,-1.76849 0.95107,-2.4993 1.493,-1.81294 0.24591,0.31145 0.27672,0.19494 0.10852,-0.41039 -0.15319,-0.55135 -0.11012,-0.78061 0.12375,-0.65924 0.19724,0.10234 0.55175,-0.009 0.7878,-0.24809 0.23604,-0.23877 0.29283,-0.43813 0.12618,-0.443 -0.16666,-0.005 -0.0297,-0.14261 0.30477,-0.30607 0.83392,-0.40776 0.79019,-2.200272 -0.083,-3.402592 -0.72976,-1.00482 -0.84547,-1.02658 -5.73437,-1.0786 -0.76407,-0.008 -1.54775,-0.10183 -1.74149,-0.20821 -0.19375,-0.10637 -1.1699,-0.22984 -2.16923,-0.27437 -1.54113,-0.0686 -1.96218,0.0318 -2.77349,0.66186 -1.26202,0.98006 -4.71077,2.44927 -6.77391,2.88576 -1.24389,0.26316 -1.64971,0.485392 -1.64971,0.903422 0,0.30491 -0.2735,0.63801 -0.60779,0.74022 -0.33428,0.1022 -1.14341,0.57373 -1.79809,1.04781 -1.54823,1.12114 -3.13852,1.66371 -4.87642,1.66371 -0.7702,0 -1.40037,0.12079 -1.40037,0.26841 0,0.14762 -0.46888,0.35485 -1.04192,0.46052 -0.99191,0.1829 -1.04245,0.26451 -1.0529,1.69971 -0.0111,1.47445 -0.0458,1.52534 -1.59834,2.31671 -1.3918,0.70945 -1.55977,0.90146 -1.36331,1.55857 0.14664,0.49049 -0.0303,1.1904 -0.51189,2.02569 -0.40475,0.70194 -0.63779,1.40955 -0.51786,1.57247 0.125,0.16977 0.002,0.22693 -0.28579,0.13389 -1.41405,-0.45553 -0.78515,2.15218 0.67753,2.80935 1.49621,0.67224 1.66699,1.30892 0.57839,2.15632 -0.52508,0.40875 -1.3109,0.74318 -1.74629,0.74318 -0.68738,0 -0.76155,0.10556 -0.56328,0.80182 0.12556,0.44099 0.36297,1.0228 0.52756,1.29289 0.85778,1.40758 -0.64055,5.05213 -2.4662,5.99884 -1.02919,0.5337 -0.87128,1.28068 0.50799,2.40299 1.20937,0.98405 1.53814,1.94512 0.86013,2.51433 -0.19549,0.16411 -0.42148,0.58625 -0.50219,0.93809 -0.0807,0.35182 -0.38961,0.84358 -0.68647,1.0928 -0.29687,0.24923 -0.53975,0.64338 -0.53975,0.87591 0,0.23252 -0.39072,0.57223 -0.86827,0.75489 -0.47753,0.18268 -0.86826,0.57347 -0.86826,0.86847 0,0.29499 -0.2255,0.53633 -0.50111,0.53633 -1.69065,0 -6.60676,3.64411 -8.90572,6.60144 -1.788108,2.30016 -1.656838,3.0022 0.69394,3.71188 0.91376,0.27584 2.18952,0.95901 2.83503,1.51811 1.10481,0.95695 1.17812,1.14717 1.25022,3.24377 0.0676,1.96581 0.17692,2.29835 0.93134,2.83338 0.4701,0.33338 1.06249,1.11183 1.31642,1.72987 0.36717,0.89361 0.81811,1.27908 2.20224,1.8825 1.46002,0.6365 2.18827,0.75706 4.51897,0.74817 1.52815,-0.005 3.66145,-0.10633 4.74068,-0.22331 1.87723,-0.20348 1.97158,-0.25449 2.17792,-1.17785 0.15045,-0.67323 0.8068,-1.4197 2.16984,-2.46779 l 1.95414,-1.50261 -0.19781,-3.3722 c -0.20408,-3.47864 0.32015,-6.38788 1.23947,-6.8784 0.32227,-0.17196 0.31872,-0.2245 -0.0154,-0.22794 -0.23878,-0.003 -0.43413,-0.20128 -0.43413,-0.44182 0,-0.24054 0.1655,-0.43736 0.36781,-0.43736 0.20229,0 0.27942,-0.12005 0.17141,-0.26676 -0.10803,-0.14673 0.32027,-0.83556 0.95173,-1.53075 0.63149,-0.69518 1.25654,-1.5019 1.38903,-1.7927 0.13247,-0.29081 0.39229,-0.45017 0.57736,-0.35414 0.45743,0.23733 -0.12721,1.4695 -1.20972,2.54953 -0.47222,0.47115 -0.94186,1.14173 -1.0436,1.49019 -0.69558,2.38204 -0.97242,4.31943 -1.09776,7.68183 -0.14242,3.82055 -0.13893,3.84169 0.65673,3.96939 l 0.79988,0.1284 -0.83082,0.0397 c -0.45694,0.0218 -1.66244,0.63616 -2.67887,1.36517 -2.03655,1.46066 -2.71784,2.89819 -1.8261,3.8531 0.42153,0.4514 0.41101,0.46607 -0.0959,0.13366 -0.4562,-0.29918 -1.35633,-0.3064 -4.52949,-0.0363 -4.33495,0.36896 -5.32886,0.26243 -9.48801,-1.01693 -3.31558,-1.01988 -4.1162,-0.98898 -4.98594,0.19247 -0.3857,0.5239 -1.11659,1.27834 -1.62421,1.67652 -0.50762,0.39817 -1.14653,1.08476 -1.41982,1.52576 -0.28536,0.46048 -0.786928,0.80183 -1.178208,0.80183 -0.41515,0 -1.0179,0.44757 -1.54275,1.14556 -0.47377,0.63006 -1.26247,1.3845 -1.75267,1.67653 -0.4902,0.29203 -1.57172,0.95215 -2.40337,1.46693 -1.07643,0.6663 -2.14877,1.02087 -3.721766,1.23064 -1.378838,0.18387 -2.340247,0.4742 -2.556959,0.77215 -1.305765,1.79518 -2.3181,2.2878 -3.192666,1.55358 -0.641734,-0.53875 -1.648225,0.16012 -3.0664,2.12918 -1.012507,1.40583 -1.358536,2.23142 -1.48207,3.53609 l -0.161147,1.70205 -1.258455,-0.18719 c -0.692157,-0.10297 -1.909885,-0.3906 -2.706074,-0.63917 -1.172338,-0.36601 -1.679662,-0.38766 -2.667967,-0.11383 -1.049937,0.2909 -1.415739,0.25444 -2.619403,-0.26108 -1.823873,-0.78115 -2.006712,-0.76389 -3.192019,0.30136 -0.551135,0.49531 -1.172059,0.85299 -1.379838,0.79485 -0.535325,-0.14981 0.911487,-1.6154 2.107104,-2.13445 0.908625,-0.39447 1.097026,-0.37373 2.445177,0.26915 1.231841,0.5874 1.625143,0.64841 2.510302,0.38936 0.747218,-0.21868 1.509767,-0.21234 2.646928,0.022 2.634377,0.54288 3.491631,0.28212 3.5022,-1.06531 0.0074,-0.98505 2.608895,-4.57175 3.856363,-5.31748 0.955785,-0.57137 1.160514,-0.59627 1.95749,-0.2382 0.794453,0.35695 0.931324,0.34152 1.274302,-0.14371 0.965014,-1.36523 1.487718,-1.6624 3.3711,-1.91659 2.641848,-0.35655 6.376838,-2.39769 7.725758,-4.22206 0.58481,-0.79093 1.33298,-1.40896 1.8333,-1.51438 0.46491,-0.098 1.03617,-0.47182 1.269468,-0.83082 0.2333,-0.359 1.23541,-1.41093 2.22692,-2.33762 l 1.80271,-1.68491 1.70755,0.13774 1.70755,0.13775 -0.36149,-0.98886 c -0.19884,-0.54386 -0.77288,-1.19285 -1.27563,-1.44218 -0.86398,-0.42846 -0.91414,-0.57907 -0.91414,-2.74534 0,-2.7329 -0.27526,-3.08008 -3.43607,-4.33383 -3.870608,-1.53529 -3.570598,-2.95657 1.68422,-7.97879 1.14149,-1.09097 2.63807,-2.23322 3.32573,-2.53834 1.17116,-0.51967 1.19533,-0.55757 0.38201,-0.59889 -0.61127,-0.0311 -0.43138,-0.12626 0.60779,-0.32162 0.81182,-0.15262 1.47605,-0.37608 1.47605,-0.49657 0,-0.12048 0.47784,-0.62937 1.06187,-1.13086 0.58403,-0.50149 1.08615,-1.18244 1.11583,-1.5132 0.0296,-0.33077 0.24239,-0.6014 0.47267,-0.6014 0.23031,0 0.76416,-0.46922 1.18633,-1.0427 l 0.76762,-1.04268 -1.27753,-1.09835 c -1.10631,-0.95115 -1.26612,-1.26056 -1.19244,-2.30878 0.0611,-0.87042 0.26116,-1.25735 0.71189,-1.37746 0.34474,-0.0918 0.62681,-0.33728 0.62681,-0.5454 0,-0.2081 0.31258,-0.71198 0.69462,-1.11973 0.81656,-0.87151 0.87618,-1.12691 0.21317,-0.91332 -0.37471,0.12071 -0.46587,-0.15604 -0.41125,-1.24832 0.0386,-0.77188 -0.079,-1.77946 -0.26118,-2.23904 -0.29822,-0.75201 -0.20244,-0.9348 0.95711,-1.82661 0.70867,-0.54505 1.43357,-0.9157 1.61088,-0.82371 0.17733,0.092 0.32241,0.0599 0.32241,-0.0713 0,-0.13125 -0.31864,-0.40569 -0.70808,-0.60988 -0.38946,-0.20418 -0.61227,-0.50141 -0.49516,-0.66051 0.11714,-0.15908 0.084,-0.27047 -0.0733,-0.2475 -0.67244,0.0981 -0.94563,-0.055 -0.51092,-0.28626 0.35182,-0.18716 0.37813,-0.39413 0.10471,-0.8231 -0.4519,-0.70888 -0.14044,-1.83364 0.50777,-1.83364 0.26424,0 0.48045,-0.26894 0.48045,-0.59763 0,-0.32869 0.24734,-0.99917 0.54964,-1.48995 0.3023,-0.49077 0.38046,-0.80452 0.17367,-0.69723 -0.20679,0.10729 -0.36911,0.15454 -0.36067,0.10498 0.099,-0.58258 0.98575,-2.90949 1.00315,-2.63263 0.0162,0.25874 0.4403,0.17175 1.38305,-0.28375 1.34294,-0.64887 1.3597,-0.67849 1.36544,-2.41417 0.006,-1.64551 -0.0624,-1.79431 -1.06636,-2.34037 -0.58969,-0.32074 -1.32598,-0.98641 -1.63619,-1.47928 -0.31023,-0.49287 -0.75476,-0.84275 -0.98788,-0.77752 -0.23312,0.0652 -0.42385,-0.0892 -0.42385,-0.34305 0,-0.2539 -0.27351,-0.46582 -0.60779,-0.47092 -0.33427,-0.005 -0.91114,-0.201912 -1.28195,-0.437352 -0.3708,-0.23545 -1.18832,-0.42809 -1.81674,-0.42809 -1.20246,0 -1.34017,0.18534 -1.6122,2.169902 -0.17441,1.27249 -1.45627,1.53653 -3.51516,0.72406 -1.54673,-0.61037 -1.63411,-0.61472 -2.29277,-0.11432 -0.3766,0.28614 -0.84652,1.05704 -1.04425,1.71311 -0.19771,0.65607 -1.00563,2.29293 -1.79533,3.63744 l -1.435828,2.44457 1.117258,0.76553 1.11728,0.76554 -0.23866,2.40262 c -0.13128,1.32145 -0.37251,2.40264 -0.53606,2.40264 -0.16356,0 -0.29736,-0.15308 -0.29736,-0.34017 0,-0.18709 -0.10041,-0.25587 -0.22315,-0.15283 -0.12267,0.10303 -0.0255,0.38732 0.21617,0.63173 0.35532,0.35943 0.35019,0.54197 -0.0268,0.95466 -0.860738,0.942 -1.627128,1.49697 -1.830968,1.32584 -0.11123,-0.0934 -0.41731,-0.0199 -0.68018,0.16323 -0.35462,0.24708 -0.76459,0.2491 -1.58899,0.008 -0.6111,-0.17885 -1.20486,-0.24644 -1.31948,-0.1502 -0.11468,0.0962 -0.38015,-0.008 -0.59006,-0.23134 -0.51044,-0.54342 -3.53697,-0.97128 -3.14974,-0.44528 0.19821,0.26924 0.0689,0.32478 -0.477,0.20494 -0.41192,-0.0904 -0.748945,-0.0434 -0.748945,0.10444 0,0.66154 0.897985,2.5941 1.213315,2.61123 0.36475,0.0198 3.73542,4.19422 3.93983,4.8793 0.0646,0.21604 0.33797,0.32169 0.60779,0.23476 0.26983,-0.087 0.49059,-0.0419 0.49059,0.10008 0,0.36283 -0.69961,0.51663 -1.65364,0.36352 -0.52209,-0.0838 -0.77098,-0.29917 -0.69774,-0.60378 0.0625,-0.26043 -1.02373,-1.91677 -2.41411,-3.68075 -2.996109,-3.80118 -3.186036,-4.59978 -1.19489,-5.02408 1.03819,-0.22123 1.86407,-0.16128 3.73355,0.27101 3.01241,0.69659 3.41645,0.74085 3.46402,0.37947 0.0915,-0.69572 0.59829,-1.26578 1.25292,-1.4095 0.38805,-0.0851 0.61339,-0.28005 0.50076,-0.43304 -0.11258,-0.153 0.0279,-0.4403 0.31236,-0.63846 0.284438,-0.19818 0.517128,-0.56455 0.517128,-0.81417 0,-0.24962 0.18749,-0.88911 0.41663,-1.42111 0.39129,-0.90837 0.34897,-1.02589 -0.6946,-1.92979 -0.611178,-0.52938 -1.110758,-1.15309 -1.110168,-1.386 6.8e-4,-0.23291 0.5551,-1.34192 1.232278,-2.46446 0.67717,-1.12255 1.39834,-2.69703 1.6026,-3.49885 0.26937,-1.05747 0.70601,-1.7181 1.58981,-2.40545 1.31623,-1.02366 1.92553,-1.21359 1.59859,-0.49832 -0.11295,0.2471 -0.069,0.42837 0.0977,0.40282 0.82996,-0.1272 1.88354,0.0544 1.70696,0.29428 -0.10999,0.14941 0.24761,0.0842 0.79469,-0.14491 0.61633,-0.25813 1.20239,-0.86051 1.54079,-1.583742 0.40829,-0.87262 0.74025,-1.16716 1.31549,-1.16716 0.75943,0 0.75807,-0.007 -0.10347,-0.57643 -1.19589,-0.78972 -4.00976,-0.99677 -7.55615,-0.55597 -1.62365,0.2018 -4.473628,0.37515 -6.333268,0.3852 l -3.38117,0.0183 -2.70217,1.92678 c -1.486192,1.059722 -3.068972,2.024502 -3.517286,2.143962 -0.581985,0.15507 -1.163516,0.85489 -2.033209,2.44679 -0.669948,1.22627 -1.785416,2.81308 -2.478816,3.52624 -0.6934,0.71316 -1.581463,1.95962 -1.973473,2.76991 -0.642042,1.32715 -0.87304,1.51665 -2.329038,1.91063 -0.888974,0.24054 -1.775659,0.57192 -1.970409,0.73638 -0.521338,0.44026 0.834233,2.17933 1.698746,2.17933 0.768295,0 1.731955,1.29611 1.636721,2.20133 -0.04134,0.39349 0.12736,0.54219 0.547977,0.48291 0.543056,-0.0766 0.79796,0.3866 0.648908,1.17907 -0.02264,0.12027 0.316155,0.21867 0.752816,0.21867 0.522656,0 1.185738,0.42343 1.940535,1.23917 1.009468,1.09097 1.125681,1.39611 0.97167,2.55125 -0.222286,1.66734 0.07542,3.13269 0.523664,2.57805 0.236806,-0.29298 0.302313,-0.24477 0.260725,0.19186 -0.111599,1.17113 0.03556,1.60365 0.545405,1.60365 0.294955,0 0.52097,0.2613 0.52097,0.60231 0,0.33126 0.164543,0.86041 0.365642,1.17589 0.26257,0.41187 0.244163,0.85561 -0.06533,1.57409 -0.520859,1.20925 -0.169563,1.88985 1.97191,3.82039 1.27071,1.14557 1.588686,1.28286 2.971162,1.28286 1.70638,0 2.5347,-0.37468 4.74164,-2.1448 1.76396,-1.41481 1.84395,-2.03523 0.6553,-5.08181 -0.59888,-1.53492 -0.7014,-2.10365 -0.37921,-2.10365 0.60778,0 1.89458,3.32704 1.89458,4.89846 0,1.58764 -1.27014,3.05794 -3.83554,4.43996 -1.49851,0.80728 -1.96177,0.91815 -3.22772,0.77248 -1.460051,-0.16802 -1.488412,-0.15424 -2.32294,1.12827 -0.775395,1.19165 -0.955539,1.29835 -2.191736,1.29835 -1.076871,0 -2.41513,0.53365 -6.675167,2.66179 -5.9043,2.94956 -6.238948,3.29396 -5.209781,5.36181 0.720814,1.44828 0.682978,2.03517 -0.217918,3.38085 l -0.758563,1.13309 h -2.313362 c -2.759285,0 -3.360661,0.39447 -3.525587,2.31259 l -0.111008,1.29104 -1.736532,0.33118 c -2.332389,0.44481 -3.297826,0.99778 -3.30647,1.89384 -0.0038,0.40243 -0.526369,1.8826 -1.161083,3.28928 -0.788257,1.74696 -1.176338,3.13618 -1.224419,4.38308 -0.06244,1.6192 0.02952,1.90428 0.813776,2.52281 1.289075,1.01669 1.143213,2.01596 -0.526752,3.60868 -0.776007,0.7401 -1.562355,1.77544 -1.747443,2.30072 -0.317171,0.90015 -0.251022,1.01846 1.150443,2.05771 0.81783,0.60647 2.268402,1.48922 3.223497,1.96167 1.427164,0.70598 1.581848,0.85526 0.868266,0.83797 -0.477548,-0.0115 -1.422272,-0.3039 -2.09939,-0.64961 z m 51.937867,-55.29801 c -0.11799,-0.16036 -0.40078,-0.28956 -0.62827,-0.28711 -0.24854,0.003 -0.20571,0.11728 0.10729,0.28711 0.66721,0.36199 0.78744,0.36199 0.52095,0 z M 77.717478,112.07358 c 1.223708,-0.25736 1.467514,-0.45791 2.046412,-1.68323 0.361446,-0.76507 1.230758,-1.98148 1.931798,-2.70313 0.701041,-0.72163 1.876627,-2.39635 2.612439,-3.72159 1.087772,-1.95915 1.51731,-2.44964 2.298007,-2.62414 1.192788,-0.26658 5.622858,-3.515192 5.414678,-3.970632 -0.10852,-0.23738 0.57248,-0.30295 2.35933,-0.22719 l 2.51184,0.10648 0.2285,-0.95911 c 0.12718,-0.53383 0.0726,-1.09001 -0.12316,-1.25433 -0.19341,-0.16236 -0.35165,-0.60996 -0.35165,-0.99464 0,-0.61841 -0.55194,-1.93394 -1.37425,-3.27549 -0.15068,-0.24582 -0.38059,-0.85449 -0.51089,-1.35261 -0.14789,-0.56522 -0.90625,-1.4154 -2.01741,-2.26164 -1.43053,-1.08947 -1.95578,-1.32376 -2.672512,-1.19211 -1.139412,0.20931 -1.59186,-0.37329 -1.929855,-2.48498 -0.257254,-1.60727 -1.008127,-3.4872 -1.39284,-3.4872 -0.114675,0 -0.659084,0.19556 -1.209657,0.43457 -0.550561,0.23903 -2.144759,0.75366 -3.542644,1.14363 -3.984301,1.11152 -5.070449,1.48295 -5.739388,1.96271 -0.342424,0.24558 -1.872898,0.8099 -3.401048,1.25404 -3.294356,0.95747 -6.799796,2.5447 -8.547395,3.87018 -0.720073,0.54614 -3.025995,1.57835 -5.385864,2.41091 -2.269673,0.80073 -4.673686,1.68741 -5.342251,1.97041 l -1.215573,0.51454 0.03008,2.76844 c 0.01655,1.52263 0.156064,3.33686 0.310045,4.031612 0.267155,1.20536 0.388312,1.30744 2.647468,2.23047 3.361396,1.37335 5.367259,2.83407 5.928842,4.31753 0.429922,1.13567 0.577365,1.23952 2.197378,1.54785 0.955093,0.18176 2.205395,0.53249 2.778452,0.77936 1.78036,0.767 4.838733,1.67021 5.655543,1.67021 0.428898,0 1.356421,0.44362 2.061165,0.98581 0.918786,0.70689 1.433259,0.91503 1.818256,0.73563 0.295311,-0.13759 1.162076,-0.38166 1.926151,-0.54236 z m 46.625892,-8.93014 c 0.42981,-0.0729 0.78146,-0.33251 0.78146,-0.57703 0,-0.24452 0.19535,-0.4113 0.43411,-0.37063 0.23879,0.0407 0.79587,-0.0939 1.23802,-0.29912 0.6596,-0.30614 0.72725,-0.45056 0.377,-0.80486 -0.35157,-0.35563 -0.29428,-0.46088 0.32489,-0.59682 0.41344,-0.0908 0.75173,-0.26323 0.75173,-0.38324 0,-0.246442 4.09955,-1.463192 4.92987,-1.463192 0.84063,0 3.79725,-1.44357 5.1424,-2.51077 l 1.21596,-0.9647 4.68824,0.41987 c 6.99814,0.62673 6.59845,0.68095 6.59845,-0.89508 0,-0.72961 0.2418,-1.71911 0.53735,-2.1989 0.48492,-0.78725 0.48492,-1.04414 0,-2.63321 -0.29555,-0.96847 -0.53735,-2.22705 -0.53735,-2.79686 0,-0.56981 -0.16832,-1.51046 -0.37406,-2.09033 -0.47571,-1.34089 0.0447,-2.65797 1.05015,-2.65797 0.48933,0 0.78115,-0.27875 0.99201,-0.94761 0.16429,-0.52118 0.16903,-0.99126 0.01,-1.04462 -0.1585,-0.0534 -0.19338,-0.41418 -0.0775,-0.80182 0.11676,-0.3905 0.0571,-0.7048 -0.13375,-0.7048 -0.18946,0 -0.42647,-0.26328 -0.5267,-0.58507 -0.11369,-0.36515 -0.58376,-0.65249 -1.25045,-0.76443 -0.58751,-0.09864 -0.99768,-0.275136 -0.91149,-0.392208 0.32468,-0.441047 -0.7202,-3.690597 -1.47037,-4.57281 -0.924,-1.086625 -0.96026,-1.36189 -0.24505,-1.860211 0.35595,-0.248005 0.4676,-0.636734 0.33186,-1.155523 -0.13772,-0.526394 -0.0231,-0.9082 0.35084,-1.168736 0.30545,-0.212818 0.72111,-0.646937 0.92367,-0.964709 0.35273,-0.553301 0.28207,-0.570498 -1.66866,-0.406114 -1.12034,0.09441 -3.32541,0.314802 -4.90015,0.489763 -2.62765,0.29194 -3.00307,0.267584 -4.56385,-0.296091 l -1.70067,-0.614199 -1.34037,0.587702 c -0.7372,0.323236 -2.1218,1.024636 -3.07689,1.55867 l -1.73654,0.970968 0.0502,2.035259 c 0.0276,1.119392 0.16421,2.789523 0.30346,3.711398 0.20957,1.387471 0.12375,1.928711 -0.4983,3.142651 -0.52676,1.02801 -0.68583,1.76026 -0.53194,2.44894 0.31387,1.4045 -0.44481,4.17603 -1.56226,5.70716 -1.35367,1.8548 -1.67678,2.74729 -1.93894,5.35574 -0.18891,1.87946 -0.14604,2.25315 0.23704,2.06687 0.44969,-0.21866 -0.46786,0.71716 -2.00117,2.04103 -0.42377,0.36588 -0.8403,1.23709 -0.98872,2.0679 -0.14105,0.78961 -0.47977,1.798212 -0.75271,2.241322 -0.27293,0.4431 -0.40346,0.80566 -0.29004,0.80566 0.11345,0 -0.12894,0.39517 -0.53859,0.87813 -0.40965,0.48298 -0.88917,0.80326 -1.06557,0.71172 -0.35084,-0.18203 -0.44596,0.24883 -0.11603,0.52578 0.19278,0.16183 1.77874,0.0519 3.52888,-0.24487 z m -2.35378,-3.866962 c 0.22515,-0.74628 0.56823,-1.60406 0.7624,-1.90619 0.22748,-0.35397 0.23276,-0.61319 0.0149,-0.72892 -0.18599,-0.0988 0.34662,-0.63821 1.18357,-1.19874 l 1.5217,-1.01914 v -2.39432 c 0,-2.27286 0.0789,-2.51984 1.55447,-4.86861 1.76839,-2.81483 2.08748,-3.77164 1.98063,-5.9388 -0.0517,-1.04752 0.16484,-2.00572 0.68059,-3.01219 0.68944,-1.345471 0.72075,-1.638012 0.35417,-3.308332 -0.45806,-2.086992 -0.52286,-5.090422 -0.12132,-5.62108 0.43289,-0.57205 5.95178,-3.287506 6.6815,-3.287506 0.36536,0 1.30954,0.21675 2.0982,0.481665 1.28629,0.432074 1.90383,0.443433 5.99807,0.110326 4.52887,-0.368469 5.77972,-0.725032 5.77972,-1.647551 0,-0.210122 0.46887,-1.002715 1.04191,-1.761318 0.57307,-0.758601 1.04194,-1.483456 1.04194,-1.610785 0,-0.127329 -0.84466,-0.702328 -1.87703,-1.277775 -1.54818,-0.862973 -2.13312,-1.029504 -3.33885,-0.950583 -1.31291,0.08594 -1.56258,-0.0083 -2.45041,-0.92481 -1.198,-1.236723 -1.98211,-4.611674 -1.38019,-5.940751 0.81689,-1.803769 0.17866,-2.159615 -1.37272,-0.765371 -0.53531,0.481092 -1.14504,0.874711 -1.35492,0.874711 -0.20988,0 -0.38161,0.217227 -0.38161,0.482727 0,1.366599 -3.00664,3.30769 -5.12345,3.30769 -2.08673,0 -3.10022,-0.540402 -4.1367,-2.205734 -1.01237,-1.626613 -0.98596,-1.613967 -3.59021,-1.719715 -0.47753,-0.0194 -1.35398,-0.253084 -1.94766,-0.519319 -3.03855,-1.362652 -10.28149,-2.740782 -12.72299,-2.42083 -0.8135,0.106608 -3.31234,0.262633 -5.55294,0.346723 -3.29483,0.123656 -4.28541,0.0643 -5.18008,-0.310399 -1.0077,-0.422034 -1.16016,-0.42232 -1.7118,-0.0032 -0.33306,0.253048 -0.776148,0.844221 -0.984618,1.313718 -1.24546,2.80489 -1.03776,2.603058 -2.67868,2.603058 -1.78258,0 -1.79854,0.05381 -0.78309,2.640413 0.53413,1.36058 1.19373,2.281115 2.39093,3.336782 1.07373,0.946795 1.854748,1.981678 2.227958,2.952128 0.47334,1.230845 0.94862,1.744867 2.69595,2.915705 1.8061,1.210232 2.31834,1.779917 3.44767,3.834185 1.11289,2.024378 1.26983,2.537659 0.97499,3.188685 -0.40813,0.90118 0.51694,6.416013 1.29555,7.723423 0.25788,0.43304 0.46887,1.46909 0.46887,2.30233 0,1.39334 -0.12546,1.6276 -1.56286,2.91769 -0.87863,0.78857 -1.56289,1.68535 -1.56289,2.04827 0,0.79296 0.93952,1.71198 1.75015,1.71198 1.02036,0 6.18701,2.32177 6.39584,2.87413 0.10852,0.28705 0.5187,0.8115 0.91149,1.16547 0.79421,0.71567 0.83491,1.19169 0.39007,4.56173 -0.32674,2.475292 -0.23303,2.676462 1.42628,3.061482 0.34556,0.0801 0.60879,0.25413 0.58497,0.38655 -0.0239,0.13241 0.30752,0.4962 0.73631,0.8084 0.77955,0.56761 0.77971,0.56758 1.89723,-0.34174 0.68768,-0.55956 1.27509,-1.43137 1.52698,-2.266262 z m -7.28397,-0.0448 c 0,-0.16036 -0.16551,-0.29157 -0.36782,-0.29157 -0.20229,0 -0.27119,0.13121 -0.15315,0.29157 0.118,0.16038 0.28359,0.29157 0.36781,0.29157 0.0843,0 0.15316,-0.13119 0.15316,-0.29157 z m 0.0284,-0.58314 c 0.17538,0 0.3189,-1.18086 0.3189,-2.62413 0,-1.44327 -0.13734,-2.62413 -0.30517,-2.62413 -0.16785,0 -0.48418,-0.36082 -0.70299,-0.80182 -0.2895,-0.58356 -1.12822,-1.10047 -3.08105,-1.89891 -1.47581,-0.6034 -2.922,-1.09542 -3.21377,-1.09339 -1.22534,0.009 -2.0743,-0.86685 -2.0743,-2.1389 0,-1.07835 0.19804,-1.39801 1.56287,-2.52253 1.37678,-1.13436 1.56288,-1.43843 1.56288,-2.55354 0,-0.6962 -0.2096,-1.62013 -0.46577,-2.05317 -0.77409,-1.30853 -1.7266,-6.306858 -1.47273,-7.72817 0.1947,-1.089987 0.0485,-1.613648 -0.9611,-3.441164 -0.97523,-1.765379 -1.56564,-2.404981 -3.26193,-3.533661 -1.68947,-1.124133 -2.21196,-1.68837 -2.834968,-3.06149 -0.45222,-0.996661 -1.3775,-2.218604 -2.26825,-2.995434 -1.14906,-1.002121 -1.72808,-1.874043 -2.45109,-3.691029 -0.90287,-2.268946 -1.00185,-2.387656 -2.14041,-2.56697 -1.2884,-0.202918 -1.73265,0.08312 -3.280414,2.112128 -0.878872,1.152131 -0.754207,1.709986 0.896304,4.011073 0.93888,1.308941 1.22233,2.023266 1.22233,3.080298 0,0.756892 0.29533,2.076679 0.65628,2.932857 1.15706,2.74461 1.522,4.583234 1.27438,6.420635 -0.30678,2.276424 -0.65889,2.869459 -2.44993,4.12633 -0.81916,0.574841 -1.911298,1.673737 -2.426989,2.441997 -0.79251,1.18066 -0.883228,1.5322 -0.586206,2.27154 0.193273,0.48109 0.452324,1.53702 0.575649,2.34651 0.294155,1.93069 0.586181,2.28684 1.725236,2.10404 0.70723,-0.1135 1.05378,0.0149 1.46611,0.54322 0.29699,0.38052 0.74291,0.69186 0.99095,0.69186 0.64811,0 2.59491,2.32702 2.59491,3.10172 0,0.35985 0.15627,0.73537 0.3473,0.83447 0.19102,0.0991 0.3473,0.41881 0.3473,0.71044 0,0.29163 0.2186,0.68252 0.48576,0.86867 0.46842,0.32637 0.71169,1.23083 1.12411,4.17942 0.10655,0.76172 0.26533,1.38495 0.35289,1.38495 0.0876,0 0.81484,-0.24913 1.6162,-0.55362 1.192358,-0.45307 2.150878,-0.54163 5.277368,-0.48759 4.16114,0.0719 4.7759,0.20056 6.07786,1.27187 1.01121,0.83204 2.0648,1.24387 2.72003,1.06318 0.2544,-0.0702 0.60605,-0.12756 0.78145,-0.12756 z"
       id="path667" /><path
       style="fill:#ffffff;stroke-width:0.243037"
       d="m 118.23169,101.36748 c -0.42082,-0.41569 -1.03881,-0.83309 -1.37335,-0.92756 -1.08488,-0.30635 -1.17312,-0.649192 -0.85757,-3.331562 0.15747,-1.33853 0.22215,-2.70085 0.14375,-3.02736 -0.21559,-0.89788 -1.61142,-2.44199 -2.83374,-3.13478 -1.4952,-0.84744 -4.32582,-1.9702 -4.96715,-1.9702 -0.68147,0 -1.7357,-0.93305 -1.7357,-1.53622 0,-0.25721 0.6702,-1.21798 1.48934,-2.13505 1.40934,-1.57785 1.48934,-1.73215 1.48934,-2.87268 0,-0.69611 -0.23518,-1.83387 -0.55669,-2.69331 -0.7844,-2.09681 -1.36129,-5.513988 -1.19596,-7.084442 0.1175,-1.116607 0.0401,-1.494051 -0.57138,-2.784792 -1.0232,-2.15989 -1.99072,-3.316151 -4.04367,-4.832548 -1.39185,-1.028084 -1.95426,-1.625976 -2.40571,-2.557536 -0.32407,-0.66868 -1.456728,-2.204243 -2.517028,-3.412363 -1.47187,-1.677101 -2.03894,-2.530623 -2.39776,-3.609051 -0.25848,-0.776859 -0.42307,-1.499474 -0.36577,-1.605812 0.0573,-0.106338 0.56888,-0.193342 1.13682,-0.193342 1.42533,0 1.78164,-0.282348 2.63832,-2.090716 1.013048,-2.13843 1.351318,-2.355649 2.939388,-1.887594 1.47787,0.435581 3.40525,0.460681 8.31515,0.108282 5.03374,-0.361287 9.19259,0.230734 14.47691,2.060828 1.23563,0.427923 2.6721,0.779626 3.1922,0.781562 1.51745,0.0056 1.92285,0.237271 2.7888,1.593422 1.1138,1.744248 2.38505,2.377249 4.43959,2.210629 0.98729,-0.08007 1.90354,-0.348406 2.65498,-0.777555 1.26576,-0.722891 2.40407,-1.87209 2.40407,-2.427076 0,-0.196851 0.23199,-0.461033 0.51553,-0.587072 0.28355,-0.126038 0.87068,-0.529185 1.30472,-0.895882 1.00676,-0.850537 1.51138,-0.885416 1.25428,-0.08669 -0.10262,0.319014 -0.19204,1.392063 -0.19856,2.384551 -0.009,1.38927 0.11123,2.085894 0.52333,3.027226 0.77323,1.76647 1.60352,2.339805 3.50043,2.417088 1.26188,0.05141 1.86738,0.240323 3.22685,1.00677 0.92042,0.518918 1.70137,0.973801 1.73543,1.010853 0.034,0.03705 -0.40415,0.742655 -0.9738,1.56801 -0.56964,0.825353 -1.03572,1.660294 -1.03572,1.855422 0,0.817717 -1.78766,1.23442 -6.83455,1.593131 -2.62446,0.186536 -3.32448,0.149241 -4.97765,-0.265198 -1.79008,-0.448763 -1.9997,-0.453823 -3.01794,-0.07285 -1.73764,0.650134 -5.42003,2.658214 -5.73409,3.126923 -0.38533,0.57505 -0.3611,2.664564 0.0598,5.161043 l 0.34621,2.053427 -0.61263,1.505552 c -0.43031,1.05751 -0.64447,2.08512 -0.71962,3.45307 -0.1148,2.09051 -0.43999,3.02935 -1.87972,5.42768 -1.47181,2.45173 -1.60476,2.88554 -1.60476,5.23571 v 2.16786 l -1.31058,0.87398 c -1.00431,0.66975 -1.34482,1.0547 -1.45717,1.64734 -0.43591,2.29992 -2.32705,5.284692 -3.34839,5.284692 -0.15592,0 -0.6278,-0.34012 -1.04861,-0.75581 z"
       id="Id_yaounde-i_1"><title
         id="title1055">Yaoundé I</title></path><path
       style="fill:#ffffff;stroke-width:0.243037"
       d="m 120.96281,103.23607 c -0.0861,-0.0969 0.13619,-0.31465 0.49402,-0.48393 0.70615,-0.33404 1.94062,-2.827822 2.22551,-4.495702 0.1132,-0.66302 0.5584,-1.33194 1.67877,-2.52269 1.15869,-1.23147 1.44835,-1.67352 1.20677,-1.84162 -0.26375,-0.18353 -0.27344,-0.55741 -0.0568,-2.19569 0.28686,-2.16995 0.57607,-2.93461 1.9001,-5.02395 1.05739,-1.66857 1.56787,-3.44163 1.56787,-5.44579 0,-1.03343 0.17607,-1.90148 0.59399,-2.92855 0.56977,-1.400233 0.5838,-1.545064 0.34369,-3.552294 -0.13767,-1.150901 -0.2503,-2.751987 -0.2503,-3.557971 v -1.465426 l 2.46312,-1.311787 c 1.35472,-0.721484 2.7248,-1.384055 3.04462,-1.472382 0.32662,-0.09021 1.34295,0.07445 2.31887,0.375679 1.69508,0.523211 1.83028,0.526695 5.55145,0.143111 2.09774,-0.216236 4.19348,-0.393158 4.6572,-0.393158 h 0.84313 l -0.73233,0.850089 c -0.51696,0.60007 -0.73233,1.095265 -0.73233,1.683722 0,0.503198 -0.13625,0.892449 -0.3437,0.982018 -0.45986,0.198535 -0.43746,1.231748 0.0362,1.672842 0.5741,0.534553 1.6818,3.33836 1.682,4.257508 1.6e-4,0.816174 0.30921,1.123189 1.13058,1.123189 0.22305,0 0.70436,0.32178 1.06962,0.71506 0.54291,0.5846 0.66408,0.92981 0.66408,1.89201 0,1.28278 -0.38893,2.03313 -1.05385,2.03313 -0.59748,0 -1.19981,1.13503 -1.05996,1.99739 0.4251,2.62138 0.68066,4.01508 1.01366,5.52812 0.35117,1.59566 0.35171,1.79895 0.007,2.70678 -0.20486,0.53985 -0.43713,1.46549 -0.51611,2.05696 -0.0856,0.64144 -0.29344,1.1401 -0.51488,1.2357 -0.20418,0.0881 -2.69684,-0.0361 -5.53923,-0.27631 l -5.16799,-0.43662 -1.63584,1.14879 c -1.72129,1.20879 -3.44616,1.91715 -6.82272,2.80194 -1.69586,0.44438 -3.85953,1.309852 -4.2334,1.693382 -0.0495,0.0508 0.0352,0.26192 0.1882,0.46931 0.23322,0.31616 0.11825,0.42806 -0.71201,0.69297 -0.5446,0.17376 -1.11123,0.48106 -1.25921,0.68291 -0.14798,0.20183 -0.97284,0.46903 -1.83302,0.59376 -1.94155,0.28155 -2.0245,0.28407 -2.21697,0.0675 z"
       id="Id_yaounde-v_5"><title
         id="title1057">Yaoundé V</title></path><path
       style="fill:#ffffff;stroke-width:0.243037"
       d="m 110.84681,159.26232 c -1.1735,-0.46301 -1.75762,-0.8604 -2.17671,-1.48088 -0.31507,-0.46644 -1.00308,-1.35783 -1.52892,-1.98088 -0.89545,-1.06095 -0.96631,-1.25521 -1.11681,-3.06219 -0.23158,-2.78054 -0.97711,-3.58492 -4.72345,-5.09631 -0.58749,-0.23701 -1.13172,-0.61728 -1.2094,-0.84504 -0.291798,-0.85555 1.79359,-3.46121 4.69697,-5.86879 1.6802,-1.39329 4.33951,-2.97223 5.00593,-2.97223 0.24658,0 0.66861,-0.34801 0.93783,-0.77336 0.26919,-0.42536 0.61887,-0.77338 0.77703,-0.77338 0.34201,0 2.20163,-2.50669 2.20163,-2.96771 0,-0.17623 0.15466,-0.46483 0.34369,-0.64134 0.67001,-0.62561 0.40328,-1.55043 -0.80196,-2.78053 -1.07831,-1.10057 -1.44796,-1.85968 -0.9056,-1.85968 0.13203,0 0.7446,-0.56766 1.36128,-1.26148 0.84588,-0.95168 1.21414,-1.62103 1.4995,-2.72545 0.36621,-1.41729 0.36269,-1.5047 -0.11037,-2.74193 -0.26875,-0.70288 -0.43541,-1.37487 -0.37033,-1.49332 0.065,-0.11845 0.47335,-0.2802 0.90729,-0.35942 2.05338,-0.37491 2.62346,-1.86095 1.0585,-2.7592 -1.40334,-0.80549 -2.22456,-2.61907 -1.26354,-2.79043 0.60125,-0.10721 1.8121,-2.9436 1.62143,-3.79824 -0.11775,-0.52788 0.0416,-0.70626 1.29889,-1.45434 1.43133,-0.85159 1.43336,-0.85443 1.63584,-2.28876 l 0.20273,-1.43611 1.63029,-0.55089 c 0.89666,-0.30299 2.1779,-0.59743 2.8472,-0.65432 1.46224,-0.12429 5.90127,-2.51128 6.12142,-3.29167 0.0851,-0.30194 0.49456,-0.579682 1.09594,-0.743542 2.43747,-0.66416 5.00107,-1.69348 6.57361,-2.63942 l 1.71846,-1.03373 2.29127,0.16421 c 1.2602,0.0903 3.47702,0.22651 4.92626,0.30268 3.04094,0.15981 3.66164,0.36402 4.19519,1.38026 0.59739,1.13781 0.49693,2.250232 -0.2824,3.127052 -0.36836,0.41445 -0.7808,0.75354 -0.91651,0.75354 -0.13572,0 -0.24676,0.16048 -0.24676,0.35662 0,0.19614 -0.19737,0.41469 -0.43862,0.48567 -0.64389,0.18944 -1.1652,1.52706 -1.31945,3.3855 -0.13362,1.60988 -0.12439,1.6448 0.59231,2.24096 0.63348,0.52694 0.67464,0.62785 0.3168,0.77684 -0.34121,0.14207 -0.30223,0.20344 0.22884,0.36042 0.35205,0.10406 0.60455,0.26237 0.56113,0.35177 -0.68631,1.41317 -1.1176,2.86909 -1.2399,4.18563 -0.11713,1.26085 -0.27676,1.75351 -0.71682,2.21237 -0.7884,0.82206 -3.20607,2.14274 -3.92254,2.14274 -0.60246,0 -2.87389,1.87745 -3.29451,2.72306 -0.13599,0.27343 -0.11061,0.97182 0.07,1.92984 0.29661,1.57247 0.18724,2.95207 -0.29171,3.67967 -0.20049,0.30457 -1.01372,0.54545 -2.77708,0.82256 -2.26415,0.3558 -3.08373,0.66498 -4.92845,1.85913 -0.0495,0.0321 0.0405,0.23504 0.1999,0.45113 0.15942,0.21612 0.19988,0.3935 0.0899,0.39421 -0.10988,7.3e-4 -0.5062,0.27699 -0.88054,0.61398 -0.56148,0.50544 -0.6312,0.67975 -0.39815,0.99568 0.32583,0.44171 0.0304,0.83879 -0.75423,1.01353 -0.29531,0.0658 -0.44073,0.28189 -0.40895,0.60776 0.0629,0.64446 -1.28635,4.26329 -1.75628,4.71073 -0.31865,0.30339 -0.31239,0.37387 0.0609,0.68535 0.38823,0.32391 0.33062,0.46057 -0.85924,2.03862 -0.70145,0.93028 -1.27535,1.76914 -1.27535,1.86411 0,0.095 -0.18044,0.32267 -0.40096,0.50599 -0.29241,0.24305 -0.33275,0.41129 -0.14897,0.6213 0.18363,0.20987 0.12144,0.58174 -0.22914,1.37075 -0.42431,0.95487 -0.48401,1.56689 -0.50554,5.18206 l -0.0244,4.0993 -1.7484,1.44316 c -1.01856,0.84076 -1.89695,1.79144 -2.1043,2.27751 -0.19575,0.45887 -0.55756,0.95575 -0.80401,1.10414 -0.24645,0.1484 -2.27864,0.33005 -4.51599,0.40369 -3.89097,0.12804 -4.13767,0.10634 -5.6718,-0.49895 z"
       id="Id_yaounde-iv_4"><title
         id="title1059">Yaoundé IV</title></path><path
       style="fill:#ffffff;stroke-width:0.243037"
       d="m 74.117681,111.76569 c -0.541837,-0.36535 -2.054668,-0.93617 -3.361822,-1.26847 -1.307155,-0.33231 -3.183747,-0.89949 -4.170203,-1.2604 -0.986457,-0.36091 -2.387258,-0.78346 -3.112888,-0.939 -0.98481,-0.2111 -1.420532,-0.44793 -1.718458,-0.93404 -1.455445,-2.37478 -2.650689,-3.30073 -6.429492,-4.98085 -1.212579,-0.53914 -2.038363,-1.07466 -2.269712,-1.4719 -0.512044,-0.87924 -0.734648,-6.984692 -0.2668,-7.317722 0.175048,-0.1246 2.380421,-0.99883 4.900829,-1.94274 2.949375,-1.10456 5.570394,-2.28574 7.354337,-3.31429 1.524479,-0.87896 3.999061,-2.03529 5.49907,-2.56962 1.50001,-0.53434 3.603697,-1.31439 4.674871,-1.73347 2.75684,-1.07854 4.263937,-1.59526 7.790352,-2.67098 1.70128,-0.51897 3.274094,-1.00391 3.49515,-1.07765 0.476133,-0.15883 1.153513,1.36609 1.564434,3.52187 0.320031,1.67889 0.86391,2.33391 1.937951,2.33391 1.979982,0 3.953702,1.89337 5.413582,5.19321 1.24289,2.80937 1.67885,4.31773 1.49134,5.15989 -0.13172,0.59167 -0.17939,0.60131 -2.55035,0.51503 -1.64283,-0.0598 -2.41612,0.003 -2.41612,0.19388 0,0.48156 -2.774235,2.62906 -4.704041,3.641322 -1.715861,0.90006 -1.912555,1.08801 -2.916831,2.78722 -0.592296,1.00215 -1.713683,2.60997 -2.491981,3.57295 -0.778299,0.96297 -1.75409,2.34415 -2.16842,3.06929 -0.706799,1.23699 -0.845479,1.34445 -2.245308,1.74006 -1.94916,0.55087 -2.136281,0.53683 -3.29949,-0.2475 z"
       id="Id_yaounde-vii_7"><title
         id="title1065">Yaoundé VII</title></path><path
       style="fill:#ffffff;stroke-width:0.243037"
       d="m 112.20312,98.102728 c -0.61995,-0.36812 -1.43651,-0.85599 -1.81457,-1.08418 -1.4178,-0.85573 -8.6869,-0.95271 -10.740528,-0.14328 -1.39003,0.54786 -1.43195,0.51043 -1.72615,-1.54147 -0.14916,-1.04031 -0.46478,-2.28737 -0.70136,-2.77124 -0.23659,-0.48386 -0.75582,-1.60724 -1.15387,-2.49639 -0.96359,-2.15247 -1.67077,-3.05208 -2.99088,-3.80471 -0.60477,-0.34479 -1.16453,-0.74511 -1.24388,-0.88959 -0.0794,-0.14448 -0.58957,-0.26269 -1.1338,-0.26269 -0.544222,0 -1.093343,-0.145 -1.220261,-0.32224 -0.222901,-0.31126 -1.200108,-4.36244 -1.200108,-4.97523 0,-0.53364 1.841117,-2.674447 3.323749,-3.864784 1.75444,-1.408542 2.20408,-2.457663 2.21352,-5.164589 0.006,-1.544926 -0.1341,-2.248529 -0.83842,-4.229116 -0.46469,-1.306724 -0.93248,-3.073137 -1.03955,-3.925361 -0.12804,-1.019211 -0.41506,-1.902578 -0.83864,-2.581197 -1.435755,-2.300266 -1.904161,-3.156414 -1.904161,-3.480484 0,-0.187199 0.547165,-0.975927 1.215891,-1.752728 1.0135,-1.177264 1.34828,-1.412366 2.01118,-1.412366 1.14609,0 1.77059,0.617068 2.51585,2.485907 0.47788,1.198307 1.22186,2.314813 2.72706,4.092466 1.13844,1.344522 2.06992,2.556479 2.06992,2.693239 0,0.512715 1.491428,2.131421 2.953758,3.205793 1.78689,1.312843 2.24585,1.845239 3.31303,3.843259 0.72971,1.366207 0.79999,1.672454 0.79999,3.48639 0,2.153831 0.68547,5.660901 1.42538,7.292661 0.71784,1.58308 0.59686,2.69937 -0.39702,3.66366 -0.46247,0.44871 -1.15696,1.12382 -1.54331,1.50027 -0.58405,0.56908 -0.69827,0.86373 -0.67767,1.74794 0.0338,1.44857 0.52696,1.96062 2.3335,2.42273 2.72737,0.69765 5.14008,1.88563 6.06862,2.9881 0.84084,0.99835 0.84616,1.01855 0.84616,3.22517 0,2.14639 -0.0197,2.22893 -0.58775,2.47194 -0.79531,0.34019 -0.78564,0.34216 -2.06568,-0.41788 z"
       id="Id_yaounde-ii_2"><title
         id="title1067">Yaoundé II</title></path><path
       style="fill:#ffffff;stroke-width:0.174074"
       d="m 96.870002,127.51553 c -2.67337,-3.68737 3.03394,3.98238 -1.37477,-1.80452"
       id="path811" /><path
       style="fill:#ffffff;stroke-width:0.174074"
       d="m 89.767042,203.04782 0.458256,-0.25778"
       id="path813" /><path
       style="fill:#ffffff;stroke-width:0.174074"
       d="m 94.807852,126.48437 2.97866,2.32011"
       id="path815" /><path
       style="fill:#ffffff;stroke-width:0.174074"
       d="m 109.93029,186.29151 4.58257,4.38243"
       id="path817" /><path
       style="fill:#ffffff;stroke-width:0.174074"
       d="m 96.411742,128.03111 c -0.31501,-1.35885 -1.36885,-1.54008 -2.06215,-2.3201 -0.0607,-0.0682 0,-0.66723 0,-0.77336"
       id="path819" /><path
       style="fill:#ffffff;stroke-width:0.174074"
       d="m 117.94976,208.7192 1.14565,-1.28895"
       id="path821" /><path
       style="fill:#ffffff;stroke-width:0.174074"
       id="path974"
       d="m 94.039872,124.82106 c 0.58253,0.47979 1.06804,1.04272 1.46648,1.71705 0,0 2.23206,1.10227 2.23206,1.10227 v 0 c -0.38449,-0.68075 -0.81125,-1.32601 -1.43024,-1.76223 0,0 -2.2683,-1.05709 -2.2683,-1.05709 z" /><path
       style="fill:#ffffff;stroke-width:0.243037"
       d="m 89.781869,135.7705 c -1.04216,-0.63744 -3.064751,-2.66843 -3.225739,-3.23911 -0.07948,-0.28195 -0.02805,-0.90989 0.114306,-1.39543 0.329689,-1.12392 -0.158834,-2.98133 -0.883536,-3.35932 -0.346472,-0.18071 -0.487896,-0.48957 -0.487896,-1.06554 0,-0.6131 -0.120211,-0.84643 -0.492547,-0.95599 -0.460396,-0.13545 -0.483318,-0.2562 -0.351086,-1.84938 l 0.141461,-1.70445 -0.937723,-1.14456 c -0.56081,-0.68452 -1.287763,-1.26256 -1.80861,-1.43812 -0.609424,-0.20543 -0.911712,-0.47653 -1.006835,-0.90298 -0.0972,-0.43582 -0.297859,-0.60939 -0.7044,-0.60939 -0.444954,0 -0.568451,-0.13247 -0.568451,-0.60972 0,-0.84747 -0.776514,-1.87223 -1.550678,-2.04644 -0.629603,-0.14166 -1.886249,-1.3141 -1.886249,-1.75982 0,-0.12157 0.793297,-0.48277 1.762876,-0.80266 1.597138,-0.52695 1.828714,-0.68905 2.463128,-1.72416 0.385144,-0.62838 1.305961,-1.90308 2.046264,-2.83264 0.740315,-0.92958 1.760353,-2.38753 2.266767,-3.2399 1.307413,-2.20058 1.706731,-2.63856 3.024639,-3.31738 0.642473,-0.33093 2.153311,-1.29999 3.357402,-2.153472 l 2.18928,-1.55178 4.33326,-0.16138 c 2.38331,-0.0888 5.732108,-0.23483 7.441798,-0.32462 2.59614,-0.13633 3.33259,-0.0886 4.46799,0.28981 1.29352,0.43108 1.32933,0.46479 0.73805,0.69474 -0.34178,0.13291 -0.84321,0.6454 -1.11427,1.13886 -0.74674,1.359382 -1.29271,1.659122 -2.68427,1.473692 -0.78471,-0.10456 -1.19366,-0.27923 -1.19366,-0.50983 0,-0.55185 -0.54189,-0.41394 -1.51224,0.38485 -1.21297,0.99853 -1.56323,1.50355 -2.04035,2.94183 -0.22414,0.67565 -0.90846,2.12097 -1.52069,3.21182 -0.612258,1.09085 -1.113188,2.19577 -1.113188,2.45539 0,0.25961 0.43009,0.91879 0.955718,1.46487 l 0.95569,0.99284 -0.40971,1.46548 c -0.22532,0.80601 -0.552288,1.52704 -0.726558,1.60228 -0.17428,0.0752 -0.31688,0.30444 -0.31688,0.50932 0,0.20488 -0.30932,0.49384 -0.68738,0.64212 -0.37807,0.14827 -0.68739,0.35207 -0.68739,0.45288 0,0.10083 -0.13307,0.38806 -0.2957,0.6383 -0.28167,0.43339 -0.42848,0.42819 -3.0904,-0.10936 -3.92279,-0.79219 -5.769972,-0.42119 -5.432605,1.09112 0.08268,0.37044 1.120805,1.98997 2.307055,3.59895 1.18624,1.60898 2.28599,3.24897 2.44392,3.64444 0.15792,0.39547 0.49803,0.7791 0.75579,0.85253 1.00623,0.28663 2.62456,3.58756 2.62456,5.35334 0,1.01303 -0.60272,1.69581 -2.84485,3.22276 -1.5541,1.05836 -3.7056,1.36447 -4.8161,0.68521 z"
       id="Id_yaounde-vi_6"><title
         id="title1063">Yaoundé VI</title></path><ellipse
       id="path1047"
       style="fill:#000000;stroke:#000000;stroke-width:0.174074"
       cx="105.11861"
       cy="222.8976"
       rx="0.030519612"
       ry="0.034337297" /><path
       style="fill:#000000;stroke-width:0.174074"
       id="path1049"
       d="m 65.200862,177.535 c -0.403686,0.0995 -1.20562,-0.0199 -1.319968,0.59615 -0.01662,0.0896 0.01144,0.18254 0.01713,0.27381 0.168856,0.32298 0.0667,0.17461 0.30855,0.44328 0,0 2.270778,1.02891 2.270778,1.02891 v 0 c -0.256023,-0.19204 -0.139186,-0.0906 -0.353295,-0.30012 -0.03259,-0.0324 -0.07921,-0.0529 -0.09777,-0.0972 -0.114022,-0.27186 1.037281,-0.31601 1.181145,-0.35308 0,0 -2.006556,-1.59176 -2.006557,-1.59176 z" /><path
       style="fill:#ffffff;stroke-width:0.243037"
       d="m 62.042563,176.93309 c -3.445542,-2.0767 -3.545577,-2.36929 -1.583704,-4.63213 2.268081,-2.61601 2.363099,-2.98743 1.097879,-4.29151 -0.823726,-0.84903 -0.828864,-0.86739 -0.735911,-2.6292 0.07305,-1.38464 0.300277,-2.28364 1.034865,-4.09431 0.517694,-1.27605 1.060025,-2.74475 1.20518,-3.26378 0.285134,-1.01951 1.064786,-1.52525 2.876866,-1.86612 2.216746,-0.41699 2.108771,-0.33704 2.266976,-1.67883 0.226543,-1.92137 0.643215,-2.19695 3.480082,-2.30166 l 2.377824,-0.0878 0.69196,-1.05863 c 0.827281,-1.26563 0.889356,-2.3468 0.219555,-3.82396 -0.438298,-0.96659 -0.44616,-1.0869 -0.108891,-1.6661 0.378303,-0.64958 3.141209,-2.24261 7.528298,-4.34066 2.600123,-1.24348 3.917662,-1.6789 5.111865,-1.68939 0.566002,-0.005 0.890819,-0.24489 1.541893,-1.13882 l 0.824832,-1.13251 1.78046,-0.10332 c 2.10052,-0.12189 3.93834,-0.9931 5.49046,-2.60278 1.25967,-1.30637 1.52168,-2.32462 1.08429,-4.21393 -0.18163,-0.78458 -0.44725,-1.67247 -0.59025,-1.97311 -0.19477,-0.40941 -0.19386,-0.57142 0.004,-0.64547 0.39295,-0.14737 -0.55964,-1.53202 -1.38387,-2.01158 -0.3804,-0.22131 -1.0109,-0.82858 -1.40112,-1.3495 -0.39023,-0.52092 -1.35966,-1.67779 -2.1543,-2.57083 -2.00877,-2.25751 -2.709308,-3.8337 -1.55962,-3.50904 0.35294,0.0997 0.57283,0.052 0.57283,-0.124 0,-0.372 1.39316,-0.36775 2.21906,0.006 0.35477,0.16089 1.3523,0.43572 2.21675,0.61076 1.28014,0.2592 1.7605,0.25431 2.58936,-0.0263 2.077588,-0.70347 2.634808,-1.68568 3.052988,-5.38146 0.12792,-1.13056 0.23258,-2.07658 0.23258,-2.10227 0,-0.0257 -0.46398,-0.35264 -1.03108,-0.72655 -0.56707,-0.37391 -1.031058,-0.72933 -1.031058,-0.78982 0,-0.0605 0.450918,-0.89664 1.002048,-1.8581 0.55114,-0.96148 1.37911,-2.59326 1.83997,-3.62619 1.04814,-2.34926 1.49972,-2.63628 3.19929,-2.03352 1.24394,0.44117 2.57229,0.55443 3.22044,0.2746 0.19979,-0.0862 0.52482,-0.78213 0.72229,-1.54639 0.27904,-1.079932 0.48079,-1.423942 0.9054,-1.543852 0.66204,-0.18694 3.81511,0.858482 4.07253,1.350272 0.10077,0.19253 0.33345,0.35007 0.51705,0.35007 0.1836,0 0.56281,0.29629 0.84269,0.65843 0.27986,0.36214 1.00579,1.00247 1.61318,1.42295 l 1.10435,0.7645 -0.0682,1.60608 c -0.0658,1.55268 -0.0949,1.62083 -0.87369,2.04962 -0.4431,0.24395 -1.0515,0.48576 -1.35203,0.53736 -0.41088,0.0706 -0.65556,0.40652 -0.98663,1.35479 -0.24213,0.69354 -0.34624,1.29623 -0.23132,1.33933 0.3206,0.12024 -0.83574,2.64082 -1.21151,2.64082 -0.44273,0 -0.70024,1.2498 -0.37737,1.83149 0.16444,0.29626 0.1766,0.52129 0.0336,0.62077 -0.28767,0.20004 -0.29162,0.64122 -0.006,0.64122 0.12033,0 0.4747,0.28801 0.7876,0.64004 l 0.56887,0.64004 -0.73031,0.39186 c -0.40167,0.21554 -1.03436,0.66583 -1.406,1.00066 -0.65111,0.58666 -0.66569,0.64625 -0.40097,1.64034 0.15109,0.56735 0.27469,1.56912 0.27469,2.22615 0,0.94887 0.0795,1.19459 0.38658,1.19459 0.31525,0 0.27918,0.13075 -0.19554,0.70892 -0.32016,0.38991 -0.64554,0.91193 -0.72307,1.16005 -0.0775,0.24812 -0.29522,0.45113 -0.48377,0.45113 -0.46784,0 -0.81722,0.81276 -0.81722,1.90113 0,0.7672 0.17229,1.0673 1.13945,1.98483 l 1.13941,1.08097 -0.4701,0.74279 c -0.25855,0.40854 -0.77131,0.91803 -1.13942,1.13221 -0.36814,0.21418 -0.66934,0.54177 -0.66934,0.72799 0,0.18621 -0.53573,0.88536 -1.19052,1.55367 -0.87666,0.89476 -1.48854,1.287 -2.32103,1.48786 -0.64494,0.15562 -1.01446,0.35347 -0.86035,0.46065 0.16712,0.11621 -0.32187,0.57227 -1.28234,1.19595 -0.94075,0.61088 -2.52518,2.07951 -4.02102,3.72716 -2.249578,2.47792 -2.468508,2.80282 -2.468508,3.66347 0,1.26381 0.55964,1.80524 2.887958,2.79392 2.61404,1.11003 2.8964,1.50475 3.06005,4.278 0.0972,1.6474 0.22052,2.26358 0.47147,2.35656 0.47201,0.17489 1.82912,1.73066 1.82912,2.09687 0,0.20661 -0.5095,0.28228 -1.62635,0.24153 l -1.62636,-0.0594 -2.27931,2.24418 c -1.25363,1.23429 -2.558158,2.38021 -2.898938,2.54649 -0.34077,0.16627 -1.23531,0.93307 -1.98785,1.704 -2.04885,2.0989 -5.1027,3.60678 -8.669756,4.28078 -0.526014,0.0994 -1.219832,0.51758 -1.745908,1.0523 -0.798686,0.81184 -0.960018,0.87395 -1.895292,0.72972 -0.707415,-0.10908 -1.228286,-0.0358 -1.69102,0.2379 -1.34275,0.79423 -3.991068,4.34532 -3.991068,5.35155 0,1.10496 -0.476982,1.23268 -4.213342,1.12818 -2.586687,-0.0723 -3.786697,-0.21315 -4.481253,-0.52582 -1.196386,-0.53858 -2.528582,-0.36126 -3.515041,0.46788 -0.618515,0.51986 -0.838515,0.57669 -1.377341,0.35574 -0.462316,-0.18958 -0.765144,-0.17589 -1.085247,0.049 -0.548386,0.38531 -0.286879,0.4659 -2.168675,-0.66831 z"
       id="Id_yaounde-iii_3"><title
         id="title1061">Yaoundé III</title></path></g></svg>
