<?xml version="1.0" encoding="UTF-8" standalone="no"?>
<!-- Created with Inkscape (http://www.inkscape.org/) -->

<svg
   width="284.66351mm"
   height="172.55867mm"
   viewBox="0 0 284.66351 172.55867"
   version="1.1"
   id="svg5"
   xml:space="preserve"
   inkscape:version="1.2.2 (732a01da63, 2022-12-09)"
   sodipodi:docname="carte.svg"
   xmlns:inkscape="http://www.inkscape.org/namespaces/inkscape"
   xmlns:sodipodi="http://sodipodi.sourceforge.net/DTD/sodipodi-0.dtd"
   xmlns="http://www.w3.org/2000/svg"
   xmlns:svg="http://www.w3.org/2000/svg"><sodipodi:namedview
     id="namedview7"
     pagecolor="#ffffff"
     bordercolor="#000000"
     borderopacity="0.25"
     inkscape:showpageshadow="2"
     inkscape:pageopacity="0.0"
     inkscape:pagecheckerboard="0"
     inkscape:deskcolor="#d1d1d1"
     inkscape:document-units="mm"
     showgrid="false"
     inkscape:zoom="0.71624579"
     inkscape:cx="375.5694"
     inkscape:cy="366.4943"
     inkscape:window-width="1920"
     inkscape:window-height="991"
     inkscape:window-x="-9"
     inkscape:window-y="-9"
     inkscape:window-maximized="1"
     inkscape:current-layer="layer1" /><defs
     id="defs2" /><g
     inkscape:label="Calque 1"
     inkscape:groupmode="layer"
     id="layer1"
     transform="translate(114.88433,-35.426325)"
     style="display:inline"><path
       style="fill:#000000;stroke-width:0.363325"
       d="m -31.247009,196.40965 -2.307813,-1.31394 -0.900352,-0.81752 -0.900353,-0.81753 0.369216,-1.40059 0.369248,-1.40059 1.613412,-1.49178 1.613378,-1.49176 v -0.54605 -0.54606 l -0.983897,-0.99657 -0.983898,-0.99657 0.0095,-1.73522 0.0095,-1.73522 0.34305,-1.17397 0.34305,-1.17398 1.01979,-2.51567 1.01979,-2.51565 0.196776,-0.87918 0.196774,-0.87919 1.947594,-0.71406 1.94759,-0.71407 h 0.812555 0.812554 v -1.45093 -1.45092 l 0.910865,-0.72931 0.910865,-0.72931 h 2.407581 2.407609 l 0.813903,-0.97419 0.813932,-0.97419 -0.01406,-0.78677 -0.01406,-0.78678 -0.562467,-0.83854 -0.562435,-0.83856 -0.01404,-0.73891 -0.01405,-0.73893 0.427263,-0.79921 0.427262,-0.79923 6.156754,-3.07389 6.1567495,-3.07391 h 1.424432 1.424179 l 0.68167399,-1.28838 0.681681,-1.28837 -2.03455899,-2.29093 -2.034561,-2.29096 0.231451,-1.20043 0.231453,-1.20043 0.02941,-0.33542 0.02941,-0.33542 -0.277164,-1.25782 -0.277164,-1.25784 h 0.394761 0.394752 l 0.251731,1.34169 0.251732,1.34168 -0.243346,1.29699 -0.243344,1.29698 0.50032,0.79939 0.500315,0.7994 1.384854,1.41422 1.38485299,1.41423 1.69415701,0.21652 1.694156,0.21653 1.942205,-1.06221 1.942238,-1.06222 1.014085,-1.13314 1.014114,-1.13314 v -1.06088 -1.06088 l -0.637865,-1.89643 -0.637832,-1.89644 -0.394255,-0.41928 -0.394225,-0.41927 h 0.577857 0.577882 l 0.847776,2.48669 0.8477795,2.48673 v 1.13308 1.13308 l -1.6726315,1.3564 -1.672633,1.3564 -1.135359,0.72597 -1.135358,0.72596 H 2.6370205 0.56291149 l -1.037882,1.5094 -1.03788699,1.50939 h -1.514405 -1.514422 l -5.454669,2.71808 -5.4546565,2.71807 -0.461424,0.32018 -0.461425,0.32019 -0.381211,0.93206 -0.381243,0.93205 0.817756,1.61008 0.817783,1.61011 -0.959014,1.54729 -0.959017,1.54729 -2.73853,0.1008 -2.738497,0.10079 -0.488908,0.34583 -0.488907,0.34581 -0.117829,1.72732 -0.117861,1.72732 -1.906709,0.271 -1.906709,0.271 -0.946608,0.5286 -0.94657,0.52862 v 0.77462 0.77463 l -1.256383,2.62486 -1.256382,2.62485 -0.165411,2.45383 -0.165379,2.45384 0.923048,0.8374 0.923047,0.8374 -0.131518,1.06863 -0.131518,1.06863 -1.509885,1.39604 -1.509852,1.39603 -0.277885,1.26238 -0.277853,1.26237 1.470732,1.03183 1.470732,1.03183 2.226331,1.08613 2.226297,1.08612 -0.840667,0.005 -0.840635,0.005 -2.307812,-1.31395 z m 4.806543,0.55924 0.742621,-0.75469 0.79423,-0.57954 0.794199,-0.57954 0.676765,-0.007 0.676764,-0.007 1.424303,0.68181 1.424306,0.68181 1.350535,-0.41622 1.350534,-0.41622 1.833698,0.57923 1.833699,0.5792 0.256004,-0.35302 0.256,-0.35304 0.657255,0.21497 0.657266,0.21494 v -1.0847 -1.08472 l 1.620544,-2.50202 1.6205385,-2.50203 1.216537,-0.63052 1.216533,-0.63054 0.697576,0.53805 0.697575,0.53803 0.582485,-0.412 0.582478,-0.412 0.245695,-0.65978 0.245701,-0.65975 1.048609,-0.36077 1.04861399,-0.36078 1.801199,-0.26145 1.80120701,-0.26146 2.615837,-1.55846 2.615831,-1.55847 1.105695,-1.40587 1.1057295,-1.40587 0.893779,-0.1095 0.893815,-0.1095 0.332754,-0.729 0.332752,-0.72899 1.247854,-1.00627 1.247854,-1.00626 0.820667,-1.13019 0.820706,-1.13017 2.148917,0.21525 2.148909,0.21525 -0.24227,-0.53803 -0.242245,-0.53805 v -0.34113 -0.34113 l -1.235519,-0.98365 -1.235519,-0.98365 -0.04355,-2.49893 -0.04355,-2.49894 -1.285875,-1.09633 -1.285917,-1.09631 -1.85526,-0.53 -1.855265,-0.53 -0.342078,-1.23284 -0.342111,-1.23283 1.304992,-1.75909 1.304996,-1.75908 2.571832,-2.29776 2.571833,-2.29773 1.403783,-0.61268 1.403792,-0.61267 0.513788,-0.52764 0.513821,-0.52765 h 0.359217 0.359209 l -0.421517,0.67129 -0.421548,0.67129 -1.894485,0.81821 -1.89451,0.81818 -2.123419,2.08902 -2.123417,2.08901 -1.281013,1.5356 -1.280984,1.53559 v 0.69167 0.69166 l 0.491949,0.53023 0.491948,0.53024 1.377437,0.37673 1.377471,0.37674 1.523534,1.09933 1.52353,1.09931 0.04762,2.74049 0.04762,2.74047 0.869334,0.39651 0.869334,0.39652 0.674059,1.59762 0.674083,1.59761 1.969818,0.78633 1.969842,0.78633 3.180434,-0.0172 3.180401,-0.0172 2.207089,-0.25251 2.207057,-0.25252 0.455893,-1.29686 0.455893,-1.29686 1.97369,-1.40835 1.97365,-1.40833 -0.029,-4.23661 -0.029,-4.2366 0.25331,-0.83856 0.25334,-0.83856 0.20166,-0.9224 0.20163,-0.92241 h 0.3489 0.3489 v 0.96531 0.96529 l -0.53343,1.13108 -0.53343,1.13109 0.14048,4.0677 0.14048,4.0677 -2.16543,1.57672 -2.16546,1.57672 -0.24215,1.2906 -0.24213,1.29058 -3.004484,0.27654 -3.004477,0.27654 -2.754905,-0.0399 -2.754905,-0.0399 -2.267662,-0.88004 -2.267684,-0.88003 -2.061475,-0.1873 -2.061504,-0.18731 -2.010068,1.95022 -2.010098,1.95022 -0.264536,0.71034 -0.264511,0.71035 -1.070655,0.18642 -1.070633,0.18642 -0.9838965,1.3796 -0.983898,1.3796 -2.846256,1.64955 -2.846225,1.64955 -2.53178101,0.37576 -2.53178399,0.37577 -0.48096,0.9896 -0.480957,0.98961 -0.775396,0.35368 -0.775394,0.35367 -0.43002,-0.36649 -0.430033,-0.3665 h -0.647545 -0.647411 l -0.665441,0.62669 -0.665439,0.62667 -1.335139,1.88969 -1.3351385,1.88968 -0.270344,1.84411 -0.270343,1.84412 h -0.325 -0.324983 l -0.247202,-0.3409 -0.247203,-0.34089 -0.375689,0.19789 -0.375688,0.19788 -1.804606,-0.58737 -1.804605,-0.58738 -1.563992,0.3558 -1.563994,0.35578 -1.742,-0.82981 -1.742037,-0.8298 -1.413129,1.20439 -1.41316,1.20441 h -0.415194 -0.415194 z m 69.432957,-40.7914 v -0.2893 l 1.18068,-1.26621 1.18065,-1.26622 v -0.457 -0.45702 h 0.39357 0.39357 v 0.55416 0.55417 l -1.27909,1.44799 -1.27906,1.44799 -0.29516,0.0105 -0.29516,0.0105 z m 2.89965,-5.83213 0.21032,-0.41928 0.66872,-1.91212 0.66871,-1.91211 0.46481,-0.15203 0.46478,-0.15201 -0.56112,1.561 -0.56117,1.56102 -0.40409,0.9224 -0.40409,0.92239 h -0.37859 -0.37864 z M 24.888755,147.57814 V 147.075 h 0.381188 0.381212 l -0.226518,0.50314 -0.226558,0.50313 h -0.154662 -0.154662 z m 1.574221,-2.04463 v -0.19983 l 0.673326,-0.97144 0.673294,-0.97146 -1.460408,-1.27466 -1.460433,-1.27468 0.0057,-0.65671 0.0057,-0.6567 0.237291,-0.75469 0.237309,-0.7547 h 0.544446 0.544437 v 0.48333 0.48334 l -0.393569,0.2073 -0.393537,0.2073 v 0.52655 0.52652 l 1.377432,1.29945 1.377473,1.29945 v 0.36656 0.36656 l -0.675191,0.97416 -0.675182,0.97415 h -0.308735 -0.308713 v -0.1998 z m 24.400685,-4.57465 v -0.4883 l 0.76413,-0.58937 0.76413,-0.58937 2.28594,-0.25221 2.28598,-0.2522 1.13947,-0.39461 1.13948,-0.39463 -0.2646,-3.48805 -0.2646,-3.48804 1.52392,-1.36532 1.52393,-1.36534 h 1.06171 1.06171 l 1.90172,-1.51606 1.90176,-1.51609 v -2.12137 -2.12137 l 0.59271,-0.80688 0.5927,-0.80689 0.24562,-0.90379 0.24563,-0.90381 -1.18647,-0.94502 -1.18644,-0.94505 0.25968,-2.11745 0.25967,-2.11745 0.76093,-0.72961 0.76093,-0.7296 -0.2826,0.67084 -0.28256,0.67084 -0.28786,1.34169 -0.28785,1.34168 -0.2865,0.57531 -0.28647,0.57531 1.4997,1.17096 1.4997,1.17094 -0.96134,1.77566 -0.96129,1.77567 -0.01,2.22807 -0.01,2.22811 -0.78715,0.75594 -0.7871,0.75595 -1.5349,0.95716 -1.53488,0.95716 h -0.89417 -0.89417 l -1.41185,1.40577 -1.41185,1.40576 0.29889,1.19375 0.29889,1.19374 -0.10551,2.00663 -0.10554,2.00663 -0.52086,0.44391 -0.52085,0.44389 -3.10483,0.45953 -3.10486,0.45952 -0.69632,0.73288 -0.69632,0.73289 v -0.48831 z m -24.043161,-4.19805 0.289411,-0.92241 0.758843,-0.12285 0.758801,-0.12285 -0.727273,0.68869 -0.727274,0.6887 0.258543,0.35655 0.258551,0.35656 h -0.579531 -0.579524 z m -23.3341825,-3.68936 -2.70834301,-3.58305 -0.330334,-0.98166 -0.330337,-0.98167 0.194549,-0.26829 0.19455,-0.26827 1.66345601,-0.2015 1.663465,-0.20148 2.164553,0.53577 2.164581,0.53575 0.787113,0.16565 0.787143,0.16566 0.6704115,-1.02244 0.670412,-1.02245 h 0.631871 0.631899 l -0.226443,0.31224 -0.226414,0.31226 0.406384,0.21406 0.406417,0.21407 -0.203617,0.28075 -0.20359,0.28075 -0.71159,-0.15859 -0.711587,-0.1586 -0.477827,0.89382 -0.4778555,0.89382 -0.679576,-0.23903 -0.679578,-0.23903 -2.056359,-0.63242 -2.056355,-0.63241 h -1.11529 -1.115289 l -0.742088,0.46246 -0.74208501,0.46247 0.66686301,0.86741 0.666868,0.86742 v 0.39411 0.39409 l 0.571847,0.37241 0.571841,0.3724 1.978358,2.59951 1.978327,2.5995 -0.484002,-0.0105 -0.484004,-0.0105 -2.708345,-3.58304 z m -9.943878,2.91849 -0.412531,-0.35159 0.407399,-1.30084 0.407402,-1.30086 -1.111007,-1.36635 -1.111001,-1.36636 h -0.851663 -0.851664 l -0.4722705,-0.4025 -0.472274,-0.4025 v -0.33541 -0.33543 l 0.472274,0.40251 0.4722705,0.40249 h 1.064878 1.064882 l 1.243943,1.59327 1.243947,1.59323 -0.245137,1.00627 -0.245136,1.00626 -0.01944,0.75469 -0.01944,0.75471 h -0.07644 -0.07644 l -0.412529,-0.35159 z m 33.5108945,-2.33178 -0.243255,-0.33543 h 0.590359 0.590326 l 0.243222,0.33543 0.243255,0.33543 h -0.590358 -0.590326 z m 0.590326,-2.95987 v -1.32236 l 0.885518,-0.20226 0.885492,-0.20225 0.491948,-0.004 0.491948,-0.005 v 0.33542 0.33543 H 29.41467 28.430775 v 0.98647 0.98647 l -0.393545,0.2073 -0.39357,0.2073 z m -39.882331,-4.063 -0.241054,-1.02723 h -0.801855 -0.80183 l -1.350313,-1.79903 -1.350277,-1.79902 -1.233161,-0.88434 -1.233161,-0.88435 h -0.943166 -0.94317 l -1.879934,-0.70656 -1.879936,-0.70654 -1.574223,-0.61186 -1.574255,-0.61188 -1.649955,-0.21719 -1.649987,-0.21721 -0.364934,-0.39304 -0.364901,-0.39306 -0.479896,-1.26952 -0.479926,-1.26951 -2.031134,-1.3014 -2.031134,-1.30141 -2.248421,-0.8432 -2.248422,-0.84321 -0.249504,-0.94635 -0.249536,-0.94634 -0.353179,-1.17399 -0.353146,-1.17397 -0.0022,-2.89386 -0.0022,-2.893867 0.527265,-0.372959 0.527268,-0.372944 5.77543,-2.14918 5.775432,-2.149181 1.486504,-1.144562 1.486471,-1.144562 3.525656,-1.528831 3.525622,-1.528834 2.164582,-0.589714 2.164582,-0.589714 0.787112,-0.59903 0.787111,-0.599035 4.3291705,-1.210435 4.329153,-1.210428 2.049314,-0.820743 2.049317,-0.820745 0.64201899,-1.101268 0.642018,-1.101266 2.08702401,-1.677612 2.08704,-1.677614 0.280911,-2.555109 0.280943,-2.555111 -0.434964,-0.692687 -0.434965,-0.692687 v -0.81964 -0.819642 l -0.661343,-1.298794 -0.661362,-1.298789 -0.26594,-2.276109 -0.26594,-2.276103 -1.20448501,-1.42945 -1.204489,-1.42945 -0.271437,-1.233153 -0.27143899,-1.233155 1.85208699,-2.212056 1.85209001,-2.212053 0.649533,0.265859 0.649541,0.265861 2.951697,0.0087 2.951693,0.0087 0.5098495,-1.372649 0.509888,-1.372649 1.069577,-1.091938 1.069605,-1.091938 2.077867,0.579241 2.077895,0.579243 4.213857,-0.262732 4.213823,-0.262732 3.345272,0.0062 3.345231,0.0061 3.985979,1.021971 3.985957,1.021969 1.20916,0.532909 1.20916,0.532909 h 1.56158 1.5616 l 0.64188,0.20992 0.64185,0.209921 1.14739,1.937206 1.14739,1.937208 1.94078,0.227492 1.94077,0.227494 1.19061,-0.524744 1.19065,-0.524744 0.81813,-0.979248 0.81818,-0.979246 v -0.535209 -0.535207 h 0.36057 0.36053 l 1.70398,-1.354209 1.70397,-1.354209 0.78877,0.09637 0.78879,0.09638 -0.13564,1.151786 -0.13564,1.151786 -0.35945,0.805756 -0.35944,0.805757 0.38146,2.018845 0.38149,2.018843 0.99137,1.107751 0.99137,1.107752 1.51795,-0.173521 1.51791,-0.173519 1.14636,0.530632 1.14632,0.530629 1.34836,0.971304 1.34835,0.971297 -0.53155,1.134426 -0.53155,1.134423 -0.71843,0.890333 -0.71839,0.890331 v 0.471099 0.471098 l -0.57784,0.651097 -0.5778,0.651096 -0.0126,0.70271 -0.0126,0.702711 -0.73065,0.563551 -0.73067,0.56355 0.18883,0.841874 0.18884,0.841873 -0.63517,0.598177 -0.63517,0.598177 0.97554,1.126937 0.97553,1.126934 0.23582,1.198067 0.23583,1.19807 0.18497,0.576328 0.18494,0.576327 1.55169,0.743267 1.55169,0.743265 v 0.243979 0.243976 l -0.50803,-0.06355 -0.50813,-0.06356 -1.41014,-0.70909 -1.4101,-0.709091 -0.4275,-2.06837 -0.42748,-2.068374 -0.99951,-1.012375 -0.9995,-1.012374 V 73.979278 73.72158 l 0.73064,-0.563551 0.73067,-0.563551 -0.19005,-0.84725 -0.19002,-0.847248 0.90399,-0.820101 0.90399,-0.8201 -0.25402,-0.216477 -0.25398,-0.216475 -5.52724,0.441945 -5.52727,0.441946 -1.38331,-0.562214 -1.38332,-0.562213 h -0.62073 -0.62073 l -3.34707,1.723074 -3.34708,1.723074 0.24592,2.888965 0.24588,2.888966 0.22859,1.547534 0.22859,1.547537 -0.8627,1.441203 -0.86269,1.441204 0.24397,1.300333 0.24397,1.300337 -0.63028,2.083925 -0.63032,2.083926 -0.85254,1.172429 -0.8525,1.172431 -0.68874,1.296003 -0.68873,1.296003 v 2.804409 2.804416 l -1.1747,0.74019 -1.17473,0.7402 -0.64673,1.44331 -0.64674,1.44331 -0.31948,-0.16825 -0.31945,-0.16829 0.60243,-1.2505 0.6024,-1.2505 1.10225,-1.00625 1.10223,-1.00628 0.26281,-2.683365 0.26284,-2.68337 0.4271,-1.173974 0.42711,-1.173974 1.07565,-1.342498 1.07565,-1.3425 0.4643,-1.906141 0.46431,-1.906141 -0.25323,-1.150357 -0.25318,-1.150356 0.86034,-1.704489 0.86035,-1.704487 -0.2341,-1.778911 -0.23407,-1.77891 -0.24338,-2.265112 -0.24336,-2.265111 0.58382,-0.753679 0.58382,-0.753678 3.15448,-1.59325 3.15445,-1.593249 0.53697,0.0074 0.53697,0.0074 1.71062,0.661582 1.71063,0.661578 5.37344,-0.521573 5.37345,-0.521573 0.49195,-0.546904 0.49195,-0.546901 v -0.554748 -0.554746 l 0.75115,-0.57937 0.75115,-0.579365 0.48144,-0.990576 0.4814,-0.990572 -0.71473,-0.673113 -0.71473,-0.67311 -1.35328,-0.712813 -1.35328,-0.712814 -1.42753,0.04719 -1.42754,0.04719 -0.66015,-0.176976 -0.66016,-0.176975 -0.88448,-1.242957 -0.88448,-1.242956 -0.0178,-3.57311 -0.0179,-3.57311 -0.63512,0.38661 -0.63511,0.38661 -1.1989,0.866913 -1.19892,0.866913 -0.24194,0.649702 -0.24196,0.649702 -1.1323,1.056562 -1.13229,1.056564 -1.58392,0.40445 -1.58392,0.40445 -1.70682,-0.461972 -1.70681,-0.461968 -1.03337,-1.670622 -1.03335,-1.670621 -0.94096,-0.224616 -0.941,-0.22464 -1.29293,-0.03344 -1.29292,-0.03343 -0.88225,-0.492684 -0.88225,-0.492684 -3.112928,-0.866049 -3.112932,-0.866049 -3.135108,-0.377868 -3.135108,-0.377867 -2.702162,0.394916 -2.70213,0.394917 H 19.58206 16.651427 l -1.852385,-0.535998 -1.852381,-0.535996 -0.720688,0.787562 -0.720663,0.787563 -0.250854,0.838553 -0.25083,0.838553 -0.545223,0.922405 -0.5451905,0.92241 h -1.498437 -1.498529 l -0.228231,0.194513 -0.22823,0.194515 0.958017,2.40064 0.958055,2.400644 1.7039655,1.513752 1.703966,1.513752 0.88739,1.919841 0.887385,1.919836 2.13099,1.434375 2.131019,1.43437 1.443908,2.347948 1.443908,2.347948 0.07685,3.354209 0.07685,3.354209 0.869383,2.515659 0.869366,2.51566 0.19915,1.799506 0.199141,1.799513 -1.839122,1.59137 -1.839121,1.591371 0.127456,1.13125 0.127448,1.131248 1.180684,0.305832 1.180684,0.305834 2.981814,1.209617 2.981846,1.209619 1.074841,1.593249 1.074849,1.593243 h -0.34366 -0.34379 l -0.87303,-1.323745 -0.872923,-1.32376 -2.907614,-1.191905 -2.907588,-1.191901 H 21.052668 20.30339 l -0.855721,-0.776314 -0.855723,-0.776314 v -0.998663 -0.998662 l 1.77101,-1.481362 1.77101,-1.481359 v -1.629319 -1.629318 l -0.409777,-0.652605 -0.409818,-0.652602 -0.807458,-3.767604 -0.807449,-3.767603 0.413505,-1.148258 0.413473,-1.148261 -1.655984,-2.711154 -1.655976,-2.711155 -2.055662,-1.298276 -2.055664,-1.298269 -0.82233,-1.88823 -0.822357,-1.888226 -1.7707385,-1.542055 -1.77074,-1.542056 -1.141398,-2.809311 -1.141395,-2.809312 -1.486677,-0.438669 -1.486686,-0.438669 -0.127831,0.326848 -0.127836,0.326846 -1.164151,1.248493 -1.16415001,1.248494 -0.240975,0.818286 -0.240973,0.818286 0.648861,1.054726 0.648867,1.054725 0.97846001,1.478294 0.978457,1.478298 v 1.47763 1.477631 l 0.77031,2.075387 0.77029,2.07539 0.466676,1.408209 0.466649,1.408209 -0.244269,1.44287 -0.244273,1.442871 -0.178038,0.732929 -0.178075,0.732933 -0.45933,0.731486 -0.459331,0.731491 -1.37111,1.026005 -1.37110501,1.026009 -1.348954,1.79724 -1.34895799,1.797241 0.547599,0.911362 0.54759799,0.91136 0.286993,1.844815 0.28699,1.844815 0.351992,0.372356 0.351992,0.372357 0.88482301,-0.144164 0.884825,-0.144165 2.043415,1.61662 2.043423,1.616618 0.860415,2.012526 0.860415,2.012527 0.306013,0.335421 0.30598,0.335422 0.283306,1.341684 0.283343,1.341686 0.379127,0.40767 0.3791285,0.40768 -0.2682675,1.35328 -0.268268,1.3533 h 0.6507965 0.650827 l 0.859634,-0.39477 0.859633,-0.39479 2.164582,-0.1191 2.164578,-0.11909 1.574229,-0.0396 1.574221,-0.0396 1.771043,0.25967 1.771009,0.2597 1.377473,0.89704 1.377433,0.89704 1.116439,0.59762 1.116438,0.59759 0.236515,-0.20158 0.236515,-0.20157 0.170185,-2.00546 0.170226,-2.00547 h 0.404015 0.403997 l -0.249515,2.51566 -0.249523,2.51565 h 0.467273 0.46725 l -0.488667,0.41648 -0.488659,0.41647 -0.278772,-0.33262 -0.278772,-0.33261 -1.415464,-0.61209 -1.415441,-0.61207 -1.339473,0.1089 -1.339473,0.1089 -0.355496,1.56757 -0.355496,1.56758 -0.687613,0.15325 -0.687621,0.15326 -1.023092,-0.16668 -1.02306,-0.16668 -2.6e-4,-0.21247 -2.61e-4,-0.21246 h 1.462379 1.462354 l 0.108977,-1.10713 0.108994,-1.10717 0.41055,-0.6538 0.410551,-0.65381 h 0.834288 0.834257 l -0.691212,-0.65097 -0.691202,-0.65094 -2.038264,-0.21705 -2.03823,-0.21703 -3.923658,0.4075 -3.923659,0.40752 -3.6420115,-0.0692 -3.641982,-0.0691 -2.851743,2.20387 -2.851736,2.20388 -1.180678,0.33735 -1.180678,0.33736 -1.341797,2.54483 -1.341798,2.54485 -1.494403,1.54127 -1.494401,1.54129 -0.8372155,1.75804 -0.837215,1.75804 -1.964997,0.40176 -1.965008,0.40176 -0.203328,0.4516 -0.203326,0.45159 0.831924,0.99574 0.831924,0.99574 0.86952,0.10635 0.869531,0.10635 0.379777,0.92413 0.379772,0.92415 -0.416128,0.35466 -0.416131,0.35464 z m -2.818879,-5.05229 0.243226,-0.33542 h 0.745384 0.745383 l 0.975935,-0.37898 0.975938,-0.37897 0.863795,-1.71741 0.8638015,-1.7174 1.198989,-1.16829 1.198996,-1.16831 1.526183,-2.77568 1.526189,-2.77568 1.258602,-0.46386 1.258609,-0.46386 2.876122,-2.26164 2.876129,-2.26165 2.119101,0.1864 2.119102,0.18639 0.461417,-0.47383 0.461421,-0.47382 -0.227533,-0.92548 -0.227569,-0.92548 -0.251607,-1.17397 -0.251608,-1.173975 -0.891177,-1.677111 -0.891173,-1.677104 -0.245082,-0.883259 -0.245082,-0.883257 -1.136787,-0.961558 -1.136821,-0.961558 -0.719396,-0.503133 -0.719399,-0.503131 -1.39469001,-0.16771 -1.394691,-0.167712 -0.51049099,-2.012525 -0.51049,-2.012528 -0.390814,-1.257828 -0.390816,-1.25783 h -0.692611 -0.692609 l -0.373882,0.302495 -0.373881,0.3025 -4.329154,1.222962 -4.3291595,1.222965 -1.377441,0.785816 -1.37747,0.78581 -2.164582,0.584602 -2.164582,0.584606 -3.148479,1.355532 -3.148447,1.355534 -1.771042,1.24066 -1.77101,1.240657 -4.525917,1.680932 -4.525949,1.68093 -1.475846,0.603808 -1.475847,0.603808 0.01751,3.040522 0.0174,3.04053 0.505689,1.6771 0.505657,1.67711 2.740486,1.17397 2.740485,1.17397 1.563622,1.05597 1.563622,1.05597 0.479309,1.52729 0.47929,1.52728 1.482448,0.22995 1.482448,0.22995 4.241966,1.46341 4.241939,1.46341 h 0.702313 0.70229 l 1.131186,1.00627 1.131154,1.00627 h 0.493459 0.493497 l 0.243225,-0.33543 z m 45.062578,5.70216 -0.983895,-0.26856 0.787107,-0.0284 0.787114,-0.0284 0.590326,0.32515 0.590358,0.32514 -0.393569,-0.0283 -0.393546,-0.0284 z m -1.096185,-1.16427 0.281255,-0.26554 -0.576454,-0.70141 -0.576414,-0.70142 v -0.74725 -0.74725 l 0.491948,-0.26823 0.491955,-0.26823 0.541092,-1.17398 0.541125,-1.17398 0.115636,-0.83855 0.115636,-0.83855 0.04298,-0.67084 0.04298,-0.67084 1.66165,-0.71272 1.661683,-0.71271 0.112469,-2.81987 0.112462,-2.81986 0.773023,-0.41146 0.773056,-0.41146 v 0.67367 0.6737 h -0.393554 -0.393558 v 0.50102 0.50103 l 0.688737,-0.1134 0.688728,-0.1134 0.983903,-0.19878 0.98389,-0.19877 1.73261,-0.20099 1.73265,-0.20097 -0.50175,0.51528 -0.50176,0.51528 h -1.87142 -1.871418 l -0.489954,0.50313 -0.48992,0.50312 H 35.290513 34.76895 l -0.118982,1.75624 -0.118949,1.75626 -1.672632,0.78454 -1.672632,0.78454 v 1.31152 1.31151 l -1.235974,1.71197 -1.235967,1.71198 0.411894,1.14382 0.411895,1.1438 -0.454982,0.22182 -0.45499,0.22182 z m -16.020191,-1.95977 -0.303716,-0.60837 0.445275,-0.83294 0.445308,-0.83295 v -0.79993 -0.79994 l -1.180685,-0.71651 -1.180683,-0.71654 v -0.39105 -0.39106 l 1.560658,-2.85645 1.560657,-2.85646 0.405496,-1.37227 0.405468,-1.37227 0.788782,-0.60838 0.788786,-0.6084 v 0.51924 0.51924 l -0.55111,0.18023 -0.551143,0.18024 -0.272222,1.37323 -0.272187,1.37325 -1.12121,1.92047 -1.121213,1.92048 -0.431569,0.97732 -0.431571,0.97732 1.244383,1.09422 1.244384,1.0942 -0.218688,0.94726 -0.218654,0.94726 -0.365436,1.17397 -0.365399,1.17397 z m 19.257763,-14.47491 -0.763946,-0.49246 0.885516,-0.0105 0.885485,-0.0105 v 0.50313 0.50313 h -0.121537 -0.121571 z m 38.608816,-0.49061 -0.22642,-0.31224 0.39998,-0.21069 0.39998,-0.21068 v 0.52292 0.52294 h -0.17357 -0.17357 z m -34.650035,-0.69402 0.243231,-0.33542 h 0.173532 0.173563 v 0.33542 0.33541 h -0.416794 -0.416787 z m 7.864675,-0.34415 0.0562,-0.64844 0.27041,-0.23046 0.27038,-0.23045 v 0.70695 0.70696 l -0.32642,0.17195 -0.32647,0.17194 z m 27.65406,-0.85396 -0.29516,-0.25539 -0.014,-1.03421 -0.0141,-1.03422 -0.54385,-0.83855 -0.54385,-0.83856 -6.42788,-0.53971 -6.42789,-0.53972 -1.48867,1.13571 -1.48869,1.13571 -2.05336,0.79159 -2.05333,0.79158 -2.21675,0.58217 -2.21673,0.58219 -0.53821,-0.1531 -0.53816,-0.15311 2.27774,-0.72653 2.27771,-0.72654 h 0.58867 0.58866 l 1.96885,-0.8503 1.96882,-0.85032 1.47328,-1.13438 1.47327,-1.13439 2.54658,0.30796 2.54658,0.30797 3.64042,0.17869 3.64043,0.1787 -0.002,-1.10148 -0.002,-1.10148 0.65243,-1.551529 0.65243,-1.551535 -0.64825,-2.199476 -0.64825,-2.199475 0.20563,-0.456695 0.20561,-0.45669 -0.58883,-1.422352 -0.58879,-1.422355 0.23105,-0.984592 0.23103,-0.984591 0.8203,-0.221889 0.82029,-0.221887 0.46786,-0.398745 0.46786,-0.398746 0.1783,-0.647121 0.17833,-0.647121 0.32332,0.639234 0.32331,0.639235 -0.80608,0.534739 -0.80609,0.534743 -0.68921,0.347147 -0.68919,0.347146 0.0176,0.99454 0.0177,0.994535 0.40622,2.51566 0.40624,2.515661 0.41859,1.429916 0.41861,1.429912 -0.59349,1.210567 -0.59348,1.210556 0.002,1.552288 0.002,1.55228 0.80679,1.12783 0.80676,1.12783 -0.11951,1.16806 -0.1195,1.16805 -0.29517,-0.25541 z m 0.49195,-23.770965 V 83.00958 h 0.39354 0.39357 v 0.315624 0.315628 l -0.39357,0.207301 -0.39354,0.2073 z"
       id="path179" /><path
       style="fill:#000000;stroke-width:0.22166"
       d="m 48.991931,144.73153 c 2.52283,-0.19514 0.84437,-2.19342 1.49142,-2.88998 0.14062,-0.15138 0.45596,0.15136 0.59658,0 0.39769,-0.42816 -0.49715,-0.32112 0.29826,-0.32112"
       id="path244" /><path
       style="fill:#000000;stroke-width:0.22166"
       d="m -104.02824,142.16265 -0.59654,0.64222"
       id="path246" /><path
       style="fill:#000000;stroke-width:0.22166"
       d="m 48.693631,145.37375 h 0.2983"
       id="path248" /><path
       style="fill:#000000;stroke-width:0.22166"
       d="m -82.551689,140.5571 -74.272941,8.34885"
       id="path250" /><path
       style="fill:#000000;stroke-width:0.22166"
       d="M 48.991931,145.37375 Z"
       id="path306" /><path
       style="opacity:1;fill:#000000;stroke-width:0.3095"
       d="m -17.306608,120.76785 c -0.535769,-0.52467 -1.27401,-0.95439 -1.640539,-0.95496 -0.366559,-6.9e-4 -2.790327,-0.72306 -5.386171,-1.60555 -2.595844,-0.88248 -5.034519,-1.60451 -5.419297,-1.60451 -1.226075,0 -1.601536,-0.34133 -2.079531,-1.89061 -0.412481,-1.33689 -0.683973,-1.64688 -2.327026,-2.65703 -1.023067,-0.62897 -2.944833,-1.60345 -4.270653,-2.16555 l -2.410542,-1.02199 -0.497737,-1.69978 c -0.311627,-1.06424 -0.497704,-2.78512 -0.497704,-4.60267 v -2.902893 l 1.715131,-0.674952 c 0.943318,-0.371234 3.655891,-1.403012 6.027923,-2.292852 2.506692,-0.940359 5.067436,-2.143766 6.114831,-2.873638 2.068675,-1.441538 6.968123,-3.611368 9.923897,-4.395006 1.110936,-0.29453 2.758111,-0.928362 3.660409,-1.408516 0.902328,-0.480156 3.315596,-1.339725 5.3628415,-1.910152 2.04725,-0.570432 4.228187,-1.255061 4.846525,-1.521403 0.618341,-0.266336 1.303587,-0.410173 1.522765,-0.319629 0.219183,0.09054 0.710625,1.370485 1.092094,2.844316 0.97324399,3.760176 1.00080399,3.80262 2.47337599,3.809142 1.02625801,0.0045 1.60122801,0.28103 3.12979501,1.505002 1.164915,0.932775 1.941506,1.810476 2.054939,2.322478 0.100286,0.452672 0.608659,1.617788 1.129768,2.589143 1.094491,2.040153 1.922755,5.61925 1.424513,6.1556 -0.191973,0.20667 -1.183502,0.28806 -2.504927,0.20565 l -2.187164,-0.1365 -2.798534,2.21984 c -1.53919501,1.22092 -3.383083,2.43426 -4.097532,2.69633 -1.16564,0.42756 -1.456987,0.76198 -2.837965,3.25743 -0.846436,1.52952 -2.089792,3.30607 -2.76302,3.9479 -0.673226,0.64182 -1.6184705,1.95925 -2.1005425,2.92763 -0.908094,1.82417 -1.849251,2.48816 -3.52679,2.48816 -0.429807,0 -0.864462,0.14445 -0.965835,0.32112 -0.330239,0.57519 -1.173316,0.3217 -2.167298,-0.65163 z"
       id="path443" /><path
       style="fill:#ff0000;stroke-width:0.3095"
       d=""
       id="path445" /><path
       style="fill:#ff0000;stroke-width:0.3095"
       d="m -17.227303,120.64527 c -0.752784,-0.62591 -6.932765,-2.69806 -12.677116,-4.25061 -0.823541,-0.22259 -1.172907,-0.57017 -1.654424,-1.64601 -0.335774,-0.75012 -0.805553,-1.5658 -1.044,-1.81264 -0.554508,-0.57397 -4.339133,-2.6336 -6.478712,-3.52576 -1.503486,-0.62694 -1.680829,-0.80732 -2.024121,-2.05897 -0.206937,-0.7545 -0.422316,-2.76066 -0.478622,-4.45812 l -0.10236,-3.086283 5.518255,-2.150834 c 3.035043,-1.182956 7.263231,-3.103293 9.395974,-4.267413 2.132745,-1.164122 5.219985,-2.573486 6.860557,-3.131921 1.640572,-0.558433 4.123788,-1.48819 5.518255,-2.066127 2.343758,-0.971358 10.8669155,-3.698728 11.5586955,-3.698728 0.166398,0 0.672098,1.26437 1.123781,2.809709 0.451683,1.545342 0.94499799,2.979038 1.09625499,3.185996 0.151257,0.20696 0.837752,0.478267 1.52555,0.602915 1.30551601,0.236593 3.19997301,1.466098 4.25227601,2.759725 1.344955,1.653385 3.411379,6.907671 3.411379,8.674071 v 0.91306 h -2.360322 -2.360317 l -2.40275,1.83707 c -1.32151801,1.01038 -3.178337,2.27788 -4.126254,2.81664 -1.43814,0.81738 -1.970614,1.38351 -3.216044,3.41933 -0.820901,1.34188 -1.976817,3.01432 -2.568705,3.71651 -0.591892,0.70221 -1.6360955,2.16436 -2.3204535,3.24924 -0.860522,1.36413 -1.494592,2.0328 -2.055832,2.16799 -0.446336,0.10755 -1.281345,0.32514 -1.855528,0.48363 -1.411186,0.38949 -1.509135,0.37087 -2.535417,-0.48247 z"
       id="path516" /><path
       style="opacity:1;fill:#000000;stroke-width:0.22166"
       d="m 42.131371,159.14985 c -0.62569,-0.0178 1.58427,-3.85332 1.19315,-3.85332 -0.0994,0 0,0.21408 0,0.32112 0,0.42814 0,0.85629 0,1.28444 0,1.38975 0.1399,1.17148 -1.19315,2.24776 z"
       id="path1264" /><path
       style="opacity:1;fill:#000000;stroke-width:0.22166"
       d="m 45.710781,152.40655 c -0.0549,-2.17915 1.10814,-3.57878 0,0 z"
       id="path1266" /><path
       style="opacity:1;fill:#000000;stroke-width:0.22166"
       d="m 45.412521,152.40655 c 0.82109,-1.60527 1.49141,-0.98011 1.49141,-2.56888"
       id="path1268" /><path
       style="opacity:1;fill:#000000;stroke-width:0.22166"
       d="m 51.974771,145.98437 h -0.59658"
       id="path1270" /><path
       style="opacity:1;fill:#000000;stroke-width:0.22166"
       d="m 45.710781,153.04877 c -0.0275,-2.47934 -0.36704,-1.40798 0.59658,-1.92667 0.17788,-0.0957 -0.14062,-0.49082 0,-0.6422 0.0703,-0.0757 0.22798,0.0757 0.29827,0 0.0703,-0.0757 0.0995,-0.32111 0,-0.32111 -0.0322,0 0.0422,1.19371 0,1.28443 -0.25927,0.55824 -0.59654,1.07037 -0.89485,1.60555 z"
       id="path1272" /><path
       style="opacity:1;fill:#000000;stroke-width:0.22166"
       d="m 49.886771,143.41547 -2.38626,2.5689 c 5.36388,-0.31977 0.77336,0.1308 1.78969,-0.96335 0.0703,-0.0757 0.22798,0.0757 0.29831,0 0.35848,-0.38591 0.17531,-1.07605 0.29826,-1.60555 z"
       id="path1274" /><path
       style="opacity:1;fill:#000000;stroke-width:0.22166"
       d="m 121.17688,136.02995 -0.59655,0.64222"
       id="path1276" /><path
       style="opacity:1;fill:#000000;stroke-width:0.22166"
       d="m 50.781621,140.8466 c -2.18692,0.26382 -1.78969,1.77229 -1.78969,3.5322"
       id="path1278" /><path
       style="opacity:1;fill:#000000;stroke-width:0.22166"
       d="m 112.22841,142.77327 0.59656,-1.28445"
       id="path1280" /><path
       style="opacity:1;fill:#000000;stroke-width:0.22166"
       d="m 49.886771,143.41547 c 0.13009,-0.57077 -0.36213,-1.60553 0.29831,-1.60553 0.0994,0 0.22798,0.0757 0.29827,0 0.39773,-0.42816 -0.49715,-0.32112 0.29827,-0.32112"
       id="path1282" /><path
       style="opacity:1;fill:#000000;stroke-width:0.22166"
       d="m 111.03532,145.34214 -2.08803,-1.60555"
       id="path1284" /><path
       style="opacity:1;fill:#000000;stroke-width:0.22166"
       d="m 67.783881,111.62562 c 1.69757,0.40393 0.86036,-0.1419 1.78968,-0.64223 0.17788,-0.0957 0.45597,0.15138 0.59657,0 0.22236,-0.23933 0.076,-0.72397 0.29831,-0.96332 0.0703,-0.0757 0.20934,0.0479 0.29828,0 1.2414,-0.66819 -0.31887,0.0222 0.29829,-0.64221 0.0702,-0.0757 0.22798,0.0757 0.29828,0 0.20101,-0.21637 0.29828,-2.07695 0.29828,-2.56889"
       id="path1286" /><path
       style="opacity:1;fill:#000000;stroke-width:0.22166"
       d="m 123.86147,126.39667 h -1.19309"
       id="path1288" /><path
       style="opacity:1;fill:#000000;stroke-width:0.22166"
       d="m 21.848013,150.15879 c 0.223912,-0.91957 2.455626,-0.58497 2.982839,-0.96333 0.314158,-0.22546 0.439262,-0.794 0.596569,-0.96334 0.724481,-0.7799 0.437992,0.0955 0.894847,-0.64222 0.174426,-0.28162 0.07595,-0.72399 0.298301,-0.96333 0.140619,-0.15136 0.507634,0.19148 0.596577,0 0.0889,-0.19147 -0.08894,-0.45073 0,-0.6422 0.397689,-0.85631 0.298268,0.96332 0.298268,-0.32112"
       id="path1290" /><path
       style="opacity:1;fill:#000000;stroke-width:0.22166"
       d="m 120.58033,127.35999 -0.29843,0.64223"
       id="path1292" /><path
       style="opacity:1;fill:#000000;stroke-width:0.22166"
       d="m 25.725689,146.94769 c -0.435337,-0.60261 1.491457,-1.51237 1.491457,-1.92667"
       id="path1294" /><path
       style="opacity:1;fill:#000000;stroke-width:0.22166"
       d="m 135.79298,118.36892 -0.89501,-2.24776"
       id="path1296" /><path
       style="opacity:1;fill:#000000;stroke-width:0.22166"
       d="m 25.427421,137.63551 c 0.339403,-0.86918 1.321735,-1.17097 1.789725,-1.92666 0.263256,-0.4251 -0.153237,-1.43181 0,-1.92666 0.326321,-1.05392 0.596537,-2.40794 0.596537,-3.5322"
       id="path1298" /><path
       style="opacity:1;fill:#000000;stroke-width:0.22166"
       d="m 138.17913,134.74552 14.01922,-9.9544"
       id="path1300" /><path
       style="opacity:1;fill:#000000;stroke-width:0.22166"
       d="m 145.33797,153.69099 -1.49153,-3.5322"
       id="path1302" /><path
       style="opacity:1;fill:#000000;stroke-width:0.22166"
       d="m 25.427421,137.95662 c 0.66688,0.20818 1.074744,-2.23246 1.491424,-2.56888 0.484141,-0.3909 1.462159,-0.25807 1.789717,-0.96332 0.295069,-0.6353 -0.307451,-4.16456 0,-4.49555 0.277795,-0.29907 0.298276,0.0252 0.298276,-0.64222"
       id="path1304" /><path
       style="opacity:1;fill:#000000;stroke-width:0.22166"
       d="m 126.24766,132.81885 -0.89467,4.17444"
       id="path1306" /><path
       style="opacity:1;fill:#000000;stroke-width:0.22166"
       d="m 29.006838,126.07556 c 1.402872,-0.0605 2.087994,-0.28056 2.087994,1.28443 0,0.33221 0.07025,0.44384 -0.298277,0.64223 -0.439881,0.23677 -1.753605,-0.35999 -2.087993,0 -0.197221,0.21229 0.197195,0.42991 0,0.64222 -0.07025,0.0757 -0.227975,-0.0757 -0.298301,0 -0.157186,0.16923 -0.141051,0.47298 -0.298268,0.64221"
       id="path1308" /><path
       style="opacity:1;fill:#000000;stroke-width:0.22166"
       d="m 151.90025,120.29559 0.2981,-0.32111"
       id="path1310" /><path
       style="opacity:1;fill:#000000;stroke-width:0.22166"
       d="m 28.708562,129.60777 c 0.901481,-1.28931 0.894846,-1.20079 0.894846,-2.24778"
       id="path1312" /><path
       style="opacity:1;fill:#000000;stroke-width:0.22166"
       d="m 120.58033,129.92887 -0.29843,0.32112"
       id="path1314" /><path
       style="opacity:1;fill:#000000;stroke-width:0.22166"
       d="m 29.305139,128.96554 c 0.641009,-1.38017 0.596545,-0.80575 0.596545,-1.60555"
       id="path1316" /><path
       style="opacity:1;fill:#000000;stroke-width:0.22166"
       d="m 130.72188,136.35107 48.91871,-1.60555"
       id="path1318" /><path
       style="opacity:1;fill:#000000;stroke-width:0.22166"
       d="m 174.86825,111.94674 v 0.3211"
       id="path1320" /><path
       style="opacity:1;fill:#000000;stroke-width:0.22166"
       d="m 40.639951,110.98339 c 0.63643,-0.23062 1.84318,-0.37865 2.38627,-0.96332 0.18325,-0.19728 0.19707,-0.74827 0.59657,-0.96333 0.0889,-0.0478 0.22798,0.0757 0.29831,0 0.14912,-0.16056 -0.14916,-0.80277 0,-0.96333 0.22544,-0.24271 0.59654,-0.13934 0.59654,-0.64222"
       id="path1322" /><path
       style="opacity:1;fill:#000000;stroke-width:0.22166"
       d="m 179.93901,104.56122 -14.01955,25.36765"
       id="path1324" /><path
       style="opacity:1;fill:#000000;stroke-width:0.22166"
       d="m 43.921101,107.45119 c 0.40331,-0.1449 1.78968,0.36996 1.78968,-0.3211"
       id="path1326" /><path
       style="opacity:1;fill:#ffffff;stroke-width:0.3095"
       d="m 23.828901,175.15864 c -1.740567,-0.76989 -1.945759,-0.96574 -2.490743,-2.37745 -0.417211,-1.08079 -0.851213,-1.65317 -1.458879,-1.92415 -0.762059,-0.33982 -0.86499,-0.54765 -0.86499,-1.74692 0,-0.74867 -0.08479,-2.02714 -0.188419,-2.84105 -0.170186,-1.33677 -0.336004,-1.58691 -1.715131,-2.58767 -0.839696,-0.60933 -1.996526,-1.20602 -2.57071,-1.32595 -1.587925,-0.33171 -2.386199,-1.00353 -2.386931,-2.00883 -4.3e-4,-0.68865 0.670072,-1.58332 3.140111,-4.18927 2.581168,-2.72326 3.539296,-3.50915 5.377611,-4.41101 1.230293,-0.60355 2.314798,-1.31603 2.410092,-1.58329 0.09526,-0.26725 0.441772,-0.48594 0.770038,-0.48594 0.736353,0 3.813619,-3.35409 3.813619,-4.15669 0,-0.31971 0.201318,-0.76119 0.447421,-0.98104 0.762988,-0.68169 0.500429,-1.53975 -0.894844,-2.92429 -1.263027,-1.25327 -1.715884,-2.21348 -1.043997,-2.21348 0.164057,0 0.298269,-0.36125 0.298269,-0.80277 0,-0.65221 0.146697,-0.80278 0.782222,-0.80278 0.634664,0 0.717206,-0.0843 0.437545,-0.44712 -0.272969,-0.35406 -0.171923,-0.58585 0.485487,-1.11372 l 0.830164,-0.66658 -0.894846,-0.0356 -0.894844,-0.0356 0.80811,-0.31815 c 0.771044,-0.30357 0.812089,-0.43125 0.894846,-2.78436 0.08528,-2.42531 0.100353,-2.4679 0.907019,-2.56783 0.848694,-0.10515 1.183197,-1.02228 0.372863,-1.02228 -0.246103,0 -0.447422,-0.14445 -0.447422,-0.3211 0,-0.17661 0.301997,-0.32332 0.671134,-0.32602 0.890386,-0.007 1.672102,-0.55746 1.245937,-0.87813 -0.176023,-0.13245 -0.402705,-0.4825 -0.503757,-0.77788 -0.10102,-0.29537 -0.472714,-0.58436 -0.825977,-0.64223 -0.390725,-0.0641 -0.798853,-0.50813 -1.04211,-1.13407 -0.384215,-0.98875 -0.354026,-1.09078 0.77319,-2.61485 0.961839,-1.30043 1.173001,-1.8388 1.173001,-2.99052 v -1.40458 l 1.789693,-0.76527 1.789722,-0.76527 v -1.71778 c 0,-1.46636 0.08198,-1.71778 0.560046,-1.71778 0.308028,0 0.727139,-0.21675 0.931373,-0.48166 0.263004,-0.34116 0.959102,-0.48166 2.386297,-0.48166 1.42717,0 2.12326,-0.14055 2.38627,-0.48167 0.20423,-0.26491 0.5517,-0.48166 0.77215,-0.48166 0.49547,0 2.80726,-2.25088 2.80726,-2.73331 0,-0.19325 1.30873,-0.69001 2.90828,-1.10387 3.92256,-1.01492 6.47268,-2.0671 8.36052,-3.44954 l 1.57452,-1.153 6.32569,0.5492 c 3.47912,0.30205 6.33859,0.57538 6.35435,0.60737 0.016,0.0319 0.25262,0.41546 0.52634,0.85214 0.97783,1.56002 0.67298,2.61723 -1.4209,4.92751 -1.67585,1.84904 -1.94207,2.31161 -2.10428,3.65653 -0.10213,0.84686 -0.23818,1.82874 -0.30234,2.18194 -0.0834,0.45925 0.22529,0.90487 1.08356,1.56412 1.03012,0.79128 1.17264,1.04151 1.00563,1.76611 -0.10698,0.46431 -0.45301,1.14252 -0.76897,1.50712 -0.4495,0.5187 -0.57712,1.14741 -0.58673,2.88998 l -0.0123,2.22709 -1.91723,1.52527 c -1.46154,1.1627 -2.17553,1.52527 -3.00376,1.52527 -0.83951,0 -1.42602,0.30595 -2.5795,1.34561 l -1.49291,1.3456 0.20882,3.46876 0.20884,3.46873 -0.84529,0.35877 c -0.4649,0.19733 -1.97986,0.50622 -3.36661,0.68646 -2.18791,0.28437 -2.74998,0.49575 -4.25055,1.59839 -1.63536,1.20171 -1.72925,1.34243 -1.72925,2.59192 0,1.00429 -0.20192,1.55598 -0.84181,2.29984 -0.84849,0.98635 -2.22465,4.52203 -2.56617,6.59303 -0.11122,0.67455 -0.64018,1.63096 -1.33196,2.40833 -1.93544,2.17491 -2.71719,5.41353 -2.71719,11.25694 v 4.31674 l -2.04531,1.46419 c -1.6341,1.16975 -2.121678,1.71313 -2.424994,2.70253 -0.470907,1.53609 -0.579792,1.56544 -6.566206,1.77061 -4.470867,0.15324 -4.686027,0.1308 -6.520237,-0.68053 z"
       id="Id_yaounde-iv_4"><title
         id="title3099">Yaoundé IV</title></path><path
       style="opacity:1;fill:#ffffff;stroke-width:0.3095"
       d="m -17.73044,120.26523 c -1.168201,-0.65371 -6.368008,-2.40083 -11.786647,-3.9603 -1.067886,-0.30734 -1.375304,-0.60215 -2.07869,-1.99341 -0.79378,-1.57 -0.976691,-1.71211 -4.762028,-3.69949 -2.165073,-1.13671 -4.083432,-2.25732 -4.26297,-2.49021 -0.363288,-0.47123 -0.89333,-4.35643 -0.907544,-6.65247 -0.0106,-1.696523 -0.557813,-1.31735 5.210766,-3.610203 3.384142,-1.345107 4.749917,-1.966781 11.931389,-5.430998 5.2531,-2.533994 20.4967745,-7.903798 21.3898295,-7.534875 0.212912,0.08794 0.572057,0.719984 0.798107,1.404518 1.49563299,4.529122 1.51303699,4.562379 2.50883899,4.794098 2.39210201,0.556635 4.50020001,2.244808 5.79268601,4.638803 0.817472,1.514143 2.058186,5.020577 2.300877,6.502467 l 0.197197,1.20417 -2.474381,0.003 -2.474357,0.003 -3.05787001,2.16428 c -1.68182599,1.19036 -3.49192799,2.45487 -4.02244599,2.81004 -0.53052,0.35516 -1.609294,1.58341 -2.397278,2.72944 -5.7083685,8.30213 -6.2604595,8.97243 -7.8024955,9.47317 -1.922852,0.62442 -2.430488,0.58044 -4.102984,-0.35545 z"
       id="path1399" /><path
       style="opacity:1;fill:#000000;stroke-width:0.22166"
       d="m -4.1027795,138.91994 c -0.532198,-1.03946 -0.997791,-1.50039 -1.789709,-1.92665 -0.198857,-0.1071 -0.09943,-0.53518 -0.298285,-0.64222 -0.177863,-0.0957 -0.418708,0.0957 -0.596568,0 -0.04927,-0.0265 0,-0.8779 0,-0.96333"
       id="path1468" /><path
       style="opacity:1;fill:#000000;stroke-width:0.22166"
       d="m 118.7907,174.56312 -1.78994,-1.92666"
       id="path1470" /><path
       style="opacity:1;fill:#000000;stroke-width:0.22166"
       d="m -4.4010635,138.91994 c -0.09943,-0.53518 -0.137962,-1.08778 -0.298286,-1.60554 -0.310346,-1.00229 -0.198857,0.1071 -0.59657,-0.32111 -0.33705,-0.36285 -0.11538,-0.96334 -1.193138,-0.96334"
       id="path1472" /><path
       style="opacity:1;fill:#000000;stroke-width:0.22166"
       d="M 106.85923,163.32428 -4.6993495,137.95662"
       id="path1474" /><path
       style="opacity:1;fill:#000000;stroke-width:0.22166"
       d="m 162.93676,186.12307 0.59655,-0.64222"
       id="path1476" /><path
       style="opacity:1;fill:#000000;stroke-width:0.22166"
       d="m -3.8044935,139.56217 c -0.666296,-0.25148 -0.905023,-1.92666 -1.491426,-1.92666"
       id="path1478" /><path
       style="opacity:1;fill:#000000;stroke-width:0.22166"
       d="m 133.40647,163.00317 -1.78962,-1.28444"
       id="path1480" /><path
       style="opacity:1;fill:#000000;stroke-width:0.22166"
       d="m 8.7234695,138.59884 c -1.52375,0.28557 -1.365395,-2.56889 -2.684569,-2.56889"
       id="path1482" /><path
       style="opacity:1;fill:#000000;stroke-width:0.22166"
       d="m 125.05457,161.07652 0.59654,-0.64222"
       id="path1484" /><path
       style="opacity:1;fill:#000000;stroke-width:0.22166"
       d="m 8.1268965,137.63551 c -1.590844,-0.42815 -1.590844,-0.42815 0,0 z"
       id="path1486" /><path
       style="opacity:1;fill:#000000;stroke-width:0.22166"
       d="m 7.2320505,136.67217 -1.19315,-0.3211"
       id="path1488" /><path
       style="opacity:1;fill:#000000;stroke-width:0.22166"
       d="m 8.4251985,138.91994 -3.281141,-4.17442"
       id="path1490" /><path
       style="opacity:1;fill:#000000;stroke-width:0.22166"
       d="m 124.75613,164.28762 0.89498,0.64221"
       id="path1492" /><path
       style="opacity:1;fill:#000000;stroke-width:0.22166"
       d="m 7.5303225,137.95662 c -0.284787,-1.98964 -0.997417,-1.07377 -1.78969,-1.92667"
       id="path1494" /><path
       style="opacity:1;fill:#000000;stroke-width:0.22166"
       d="m 124.15959,168.14093 -0.29812,-0.64223"
       id="path1496" /><path
       style="opacity:1;fill:#000000;stroke-width:0.22166"
       d="m -12.454753,126.39667 c 0.997778,0.1899 0.68615,1.38088 1.193135,1.92665 0.157209,0.16925 0.439361,0.15188 0.59657,0.32112 0.07029,0.0757 -0.07029,0.24541 0,0.3211 0.07029,0.0757 0.227979,-0.0757 0.298284,0 0.6171645,0.6644 -0.943104,-0.0259 0.298288,0.64223 0.1778635,0.0957 0.4559575,-0.15137 0.5965685,0 0.02489,0.0267 0.298284,0.55216 0.298284,0.64222"
       id="path1498" /><path
       style="opacity:1;fill:#000000;stroke-width:0.22166"
       d="m 170.09559,156.58097 -1.19308,-0.64222"
       id="path1500" /><path
       style="opacity:1;fill:#000000;stroke-width:0.22166"
       d="m 12.004613,126.39667 c 0.02288,-1.60585 1.008813,-1.08603 1.491419,-1.60555 0.131488,-0.1416 0.298271,-1.85073 0.298271,-2.24777"
       id="path1502" /><path
       style="opacity:1;fill:#000000;stroke-width:0.22166"
       d="m 179.93901,156.58097 -0.29842,-0.64222"
       id="path1504" /><path
       style="opacity:1;fill:#000000;stroke-width:0.22166"
       d="m 11.408038,125.43334 c 1.323645,-0.0693 1.208176,-2.56888 2.087994,-2.56888"
       id="path1506" /><path
       style="opacity:1;fill:#000000;stroke-width:0.22166"
       d="m 162.34023,158.18652 -2.38618,-1.28443"
       id="path1508" /><path
       style="opacity:1;fill:#000000;stroke-width:0.22166"
       d="m 37.657111,104.2401 c -0.397727,0.21408 -1.391994,0.21408 -1.193146,0.64222 0.198849,0.42814 1.193146,-1.1209 1.193146,-0.64222 0,0.77185 -0.87249,1.23629 -1.193146,1.92666 -0.119307,0.25688 0.119308,0.70644 0,0.96333 -0.9541,2.05417 -1.789724,-0.36554 -1.789724,2.88998"
       id="path1510" /><path
       style="opacity:1;fill:#000000;stroke-width:0.22166"
       d="M 139.07411,127.03889 38.551961,104.88232"
       id="path1512" /><path
       style="opacity:1;fill:#000000;stroke-width:0.22166"
       d="m 243.17537,148.55324 -2.08806,-0.96334"
       id="path1514" /><path
       style="opacity:1;fill:#000000;stroke-width:0.22166"
       d="m 34.97255,109.05674 c 3.281621,-3.50418 3.281111,-2.73342 3.281111,-5.45887"
       id="path2242" /><path
       style="opacity:1;fill:#000000;stroke-width:0.22166"
       d="m 99.998501,132.17664 40.865229,28.89988"
       id="path2244" /><path
       style="opacity:1;fill:#000000;stroke-width:0.22166"
       d="m 100.29695,136.99329 -1.789629,-1.28444"
       id="path2248" /><path
       style="opacity:1;fill:#000000;stroke-width:0.22166"
       d="m 29.305139,107.13009 c 0.861275,-0.33135 4.197926,2.88998 4.772532,2.88998"
       id="path2250" /><path
       style="opacity:1;fill:#000000;stroke-width:0.22166"
       d="m 151.60181,160.11319 -2.98271,-2.56887"
       id="path2252" /><path
       style="opacity:1;fill:#000000;stroke-width:0.22166"
       d="m 32.586248,109.37786 c -0.894847,-0.96333 -1.789693,-1.92667 -2.684564,-2.88999"
       id="path2254" /><path
       style="opacity:1;fill:#000000;stroke-width:0.22166"
       d="m 122.07185,136.67217 31.02147,6.7433"
       id="path2256" /><path
       style="opacity:1;fill:#000000;stroke-width:0.22166"
       d="m 29.603408,102.95567 c -0.298269,-0.96333 -0.623808,-1.91739 -0.894846,-2.89 -0.08486,-0.304528 0.942354,-1.554397 1.491423,-0.963326 0.07025,0.07575 -0.04453,0.225375 0,0.321104 0.633463,1.363932 0.197376,2.107732 -0.596577,3.532222 z"
       id="path2258" /><path
       style="opacity:1;fill:#000000;stroke-width:0.22166"
       d="m 131.3184,140.52549 -0.89463,1.28445"
       id="path2260" /><path
       style="opacity:1;fill:#000000;stroke-width:0.22166"
       d="m 21.251434,109.05674 c -0.802108,1.22119 -4.802488,-1.25221 -5.369137,-0.64221 -0.961446,1.03503 3.243845,0.64221 3.579413,0.64221"
       id="path2262" /><path
       style="opacity:1;fill:#000000;stroke-width:0.22166"
       d="m 134.30145,142.77327 -0.89498,0.96332"
       id="path2264" /><path
       style="opacity:1;fill:#000000;stroke-width:0.22166"
       d="m 20.654857,109.37786 c -0.897598,-0.55495 -3.534058,0.50607 -4.474257,0 -0.03183,-0.0171 -0.05455,-1.54696 0,-1.60556 0.07895,-0.0851 0.772032,0 0.894848,0 0.46716,0 0.371093,0.3995 0.59657,0.64223 0.140619,0.15137 0.407921,-0.0678 0.596577,0 0.805903,0.28919 1.590844,0.64221 2.386262,0.96333 z"
       id="path2266" /><path
       style="opacity:1;fill:#000000;stroke-width:0.22166"
       d="M 162.04178,153.69099 155.4795,150.801"
       id="path2268" /><path
       style="opacity:1;fill:#000000;stroke-width:0.22166"
       d="m 32.586248,108.73564 c -3.130827,-0.83151 -2.98284,0.0588 -2.98284,-1.60555"
       id="path2270" /><path
       style="opacity:1;fill:#ffffff;stroke-width:0.3095"
       d="m -30.385294,195.90102 c -4.00135,-2.17356 -4.074456,-2.24295 -3.831584,-3.63667 0.148574,-0.85255 0.6092,-1.52084 1.808475,-2.62382 1.435635,-1.32035 1.609139,-1.61468 1.609139,-2.72991 0,-1.00297 -0.16861,-1.38418 -0.853227,-1.92907 -0.830166,-0.66073 -0.849233,-0.74119 -0.705315,-2.97988 0.119169,-1.8533 0.381348,-2.80043 1.348074,-4.86967 0.66009,-1.41288 1.284501,-2.99976 1.387569,-3.52641 0.149741,-0.765 0.455083,-1.06893 1.518586,-1.51155 0.732136,-0.30472 1.952216,-0.63865 2.711279,-0.74206 l 1.38013,-0.18799 0.14114,-1.58116 c 0.21044,-2.35782 0.483983,-2.56578 3.37471,-2.56578 1.360984,0 2.680488,-0.085 2.932243,-0.1891 0.251754,-0.10395 0.869214,-0.87937 1.372106,-1.72303 l 0.914352,-1.53395 -0.747543,-1.40778 c -0.411142,-0.77428 -0.749172,-1.6526 -0.751131,-1.95182 -0.0078,-1.17162 1.505077,-2.25008 6.8820545,-4.90607 4.661941,-2.3028 5.7861,-2.73819 7.069936,-2.73819 1.473593,0 1.558617,-0.0501 2.45008299,-1.44499 l 0.923513,-1.44501 H 2.6059085 c 2.280931,0 3.027706,-0.34734 6.043002,-2.81073 1.6517925,-1.34947 1.7151305,-1.4559 1.7151305,-2.88175 0,-1.65824 -1.4386905,-6.18857 -1.9653245,-6.18857 -0.186403,0 -1.028255,-0.99792 -1.870738,-2.21761 -0.842516,-1.21967 -2.136121,-2.88696 -2.874714,-3.70508 -0.738611,-0.81811 -1.342919,-1.56752 -1.342919,-1.66534 0,-0.0978 -0.277074,-0.55705 -0.61572,-1.02052 -0.582412,-0.79706 -0.587398,-0.86494 -0.09213,-1.2548 0.805061,-0.63372 2.709761,-0.49362 5.614689,0.41299 l 2.643893,0.82515 0.6492495,-0.87658 c 0.47151,-0.63659 0.826122,-0.82679 1.295177,-0.69473 0.780541,0.21974 1.128257,-0.25689 0.644874,-0.8839 -0.280201,-0.36345 -0.190385,-0.61618 0.443757,-1.24888 0.572481,-0.57115 0.911987,-1.39487 1.212778,-2.94249 l 0.417739,-2.14929 -0.794683,-0.68191 c -0.43704,-0.37506 -0.99145,-0.84096 -1.231979,-1.03534 -0.373319,-0.30174 -0.292914,-0.63057 0.549574,-2.24777 1.95232,-3.74752 2.387312,-4.74416 2.387312,-5.46967 0,-1.21917 0.948235,-1.5033 4.191044,-1.2558 3.230464,0.24655 3.20029,0.26202 3.726104,-1.91153 0.288378,-1.19208 0.394609,-1.29255 1.467853,-1.38802 1.25764,-0.1119 3.468837,0.6562 4.600053,1.59794 0.391245,0.32571 1.024629,0.5922 1.407485,0.5922 0.463645,0 0.644253,0.1455 0.540797,0.43578 -0.168703,0.47326 1.27028,1.27367 1.989912,1.10686 0.243133,-0.0562 0.410777,0.13995 0.396414,0.46429 -0.01377,0.30908 -0.04729,1.53832 -0.07453,2.73166 l -0.0498,2.16971 -1.565978,0.64983 c -1.543162,0.64035 -1.570758,0.67542 -1.891243,2.40609 -0.380415,2.05411 -1.103805,3.68741 -1.751705,3.95506 -0.578223,0.23885 -0.617664,2.23646 -0.05423,2.73995 0.508831,0.4546 0.02254,3.53764 -0.598256,3.79417 -0.221473,0.0915 -0.402675,0.58229 -0.402675,1.09068 0,0.50839 -0.604026,2.82274 -1.342267,5.14299 -0.738274,2.32025 -1.342302,4.55151 -1.342302,4.95837 0,0.50074 0.463138,1.133 1.433463,1.95702 l 1.433458,1.21731 -1.060595,1.68389 c -0.58332,0.92615 -1.228383,1.68942 -1.433462,1.69615 -0.205073,0.007 -0.372864,0.2165 -0.372864,0.46613 0,0.24964 -0.570456,0.89461 -1.267708,1.43327 -0.697218,0.53866 -1.42818,1.1275 -1.624305,1.30852 -0.19613,0.18104 -1.068586,0.67685 -1.938843,1.10182 -1.944938,0.94979 -6.010281,4.58663 -7.677556,6.8683 -1.059728,1.45021 -1.210763,1.84472 -1.052944,2.75027 0.2723,1.56255 0.42607,1.71156 2.313982,2.24221 0.950423,0.26713 2.322111,0.9674 3.048198,1.55617 l 1.320187,1.07047 0.0093,2.47843 0.0093,2.47841 1.315421,1.05379 c 0.723479,0.57958 1.375366,1.37531 1.448646,1.76828 0.130011,0.6974 0.08241,0.71037 -1.986585,0.54137 l -2.119769,-0.17318 -0.745694,1.13478 c -0.410158,0.62413 -1.326125,1.5893 -2.035509,2.14481 -0.70935,0.55552 -1.435613,1.35465 -1.613855,1.77581 -0.228804,0.54057 -0.568825,0.76577 -1.156238,0.76577 -0.623257,0 -1.1166255,0.3675 -1.9655565,1.46413 -1.600624,2.06765 -5.783417,4.44835 -8.59052401,4.88944 -2.56222399,0.40258 -3.72856199,0.8679 -3.72856199,1.48747 0,0.25926 -0.28617,0.68718 -0.635934,0.95091 -0.566746,0.42733 -0.71518,0.42361 -1.364307,-0.0342 -0.677891,-0.47817 -0.816722,-0.46757 -2.003082,0.15291 -0.97575,0.51034 -1.670445,1.29455 -2.9620955,3.34385 -1.030519,1.63497 -1.686898,3.01698 -1.686117,3.55012 8.95e-4,0.64761 -0.115213,0.82485 -0.449956,0.68657 -0.248166,-0.10245 -0.623688,-0.0324 -0.834465,0.15601 -0.275929,0.24652 -0.872135,0.17955 -2.129258,-0.23917 -1.542386,-0.51375 -1.901691,-0.53112 -3.081187,-0.14895 -1.208366,0.3915 -1.462736,0.37186 -2.677442,-0.20658 -1.698033,-0.80861 -2.999864,-0.80228 -3.950947,0.0192 -0.410158,0.35425 -1.096333,0.92468 -1.524872,1.26763 l -0.779144,0.62353 -2.949421,-1.60211 z"
       id="path2272" /><path
       style="opacity:1;fill:#ffffff;stroke-width:0.3095"
       d="m -30.351841,195.70483 c -1.476515,-0.8052 -2.919461,-1.68727 -3.206585,-1.96016 -0.929837,-0.88384 -0.629052,-1.90087 1.11859,-3.78224 1.497565,-1.61219 1.640572,-1.8908 1.640572,-3.19673 0,-1.18928 -0.131887,-1.52362 -0.781909,-1.98212 -0.739727,-0.52177 -0.773674,-0.66151 -0.629782,-2.59127 0.181387,-2.43289 2.654338,-8.8839 3.683979,-9.61017 0.352824,-0.24888 1.496,-0.63912 2.540337,-0.86716 1.87183,-0.40877 1.902395,-0.43253 2.153709,-1.67325 0.560931,-2.76918 0.982033,-3.02468 4.98497,-3.02468 1.286614,0 1.519863,-0.11925 2.35473,-1.20418 1.259911,-1.6372 1.392067,-2.40764 0.638234,-3.72073 -1.023656,-1.78306 -0.845586,-2.56351 0.85261,-3.73664 2.289224,-1.58139 9.5942325,-5.09595 11.3831605,-5.47662 0.88244,-0.18777 1.872896,-0.40137 2.201011,-0.47466 0.328113,-0.0733 0.93026799,-0.71686 1.33812799,-1.43017 l 0.741556,-1.29694 H 2.7741155 c 1.917376,0 2.281659,-0.1113 3.941076,-1.20415 1.005643,-0.66229 2.254893,-1.61885 2.776159,-2.12569 0.9202795,-0.89482 0.9436205,-0.98335 0.8059005,-3.05571 -0.15524,-2.33527 -1.0506905,-4.87666 -2.0976145,-5.95318 -0.749174,-0.77032 -3.948166,-4.87471 -5.67992,-7.28745 -0.623098,-0.86813 -1.051416,-1.72036 -0.951819,-1.89384 0.321027,-0.55918 3.211324,-0.33637 5.876559,0.45301 l 2.5944785,0.76844 0.467707,-0.76844 c 0.320877,-0.52718 0.747985,-0.76844 1.360431,-0.76844 0.792187,0 0.885624,-0.10035 0.829636,-0.89136 -0.03558,-0.50328 0.220903,-1.30717 0.589216,-1.84639 0.358805,-0.52525 0.811129,-1.81187 1.005176,-2.85915 l 0.352838,-1.90416 -1.113339,-1.03603 -1.113306,-1.03604 1.281251,-2.67924 c 0.704702,-1.47358 1.484332,-3.32947 1.732516,-4.12422 l 0.451236,-1.44499 3.26342,-0.0918 c 1.794908,-0.0504 3.438235,-0.24792 3.651846,-0.43879 0.213649,-0.19086 0.528798,-0.90819 0.700352,-1.59406 0.30804,-1.23151 0.329982,-1.24703 1.761573,-1.24703 1.033833,0 1.937611,0.27632 3.150773,0.96332 0.935627,0.52983 1.839909,0.96333 2.009522,0.96333 0.169588,0 0.61935,0.36126 0.999459,0.80278 0.394168,0.45787 1.022775,0.80277 1.463113,0.80277 h 0.772019 l -0.08662,2.62331 -0.08662,2.62331 -1.279756,0.45831 c -1.480675,0.53028 -1.945681,1.1989 -2.441284,3.51033 -0.196854,0.91806 -0.693706,2.05924 -1.104105,2.53598 -0.646933,0.75147 -0.722192,1.06336 -0.565577,2.34467 0.297606,2.43477 0.202033,3.50458 -0.425725,4.76547 -0.328175,0.65915 -0.599276,1.41735 -0.60241,1.68489 -0.0032,0.26752 -0.540033,2.29266 -1.193074,4.50028 -0.653071,2.20763 -1.187434,4.39284 -1.187458,4.85604 -3e-5,0.58533 0.404719,1.24378 1.327208,2.15915 l 1.327218,1.31701 -1.208996,1.64653 c -1.944301,2.64794 -3.29666,3.89357 -5.956049,5.48601 -4.295565,2.57216 -9.210503,7.61307 -9.210503,9.44653 0,1.62085 0.507401,2.30006 2.14368,2.86948 0.871682,0.30334 2.205371,0.97151 2.963794,1.48483 l 1.378911,0.93328 0.139378,2.59199 0.139377,2.59201 1.389995,1.27903 c 0.764488,0.70347 1.389958,1.42525 1.389958,1.60399 0,0.19614 -0.797999,0.28858 -2.013402,0.23322 l -2.013436,-0.0916 -2.386264,2.67273 c -1.312457,1.47 -2.843816,2.88257 -3.403055,3.13903 -0.559208,0.25645 -1.6075975,1.10234 -2.3297285,1.87976 -1.727005,1.85915 -5.540666,3.85704 -8.58490001,4.49744 -2.06605899,0.4346 -2.50655199,0.65021 -3.28253199,1.60676 -0.851075,1.0491 -0.944448,1.0852 -1.8524,0.71626 -0.798243,-0.32436 -1.128373,-0.3001 -1.999,0.14685 -1.285746,0.66004 -3.5383115,3.68801 -4.3942155,5.90682 -0.75799,1.96502 -1.431641,2.23824 -3.835354,1.55563 -1.211042,-0.34391 -1.896872,-0.36863 -2.952176,-0.10635 -1.11714,0.27759 -1.590682,0.24441 -2.527883,-0.17715 -1.925616,-0.86613 -3.417916,-0.68184 -4.9255,0.60828 -0.720331,0.61642 -1.391465,1.11346 -1.491419,1.10452 -0.09996,-0.009 -1.389772,-0.67506 -2.866285,-1.48027 z"
       id="Id_yaounde-iii_3"><title
         id="title3097">Yaoundé III</title></path><path
       style="opacity:1;fill:#ffffff;stroke-width:0.3095"
       d="m 1.5090895,148.80079 c -1.09210601,-0.10665 -1.47669501,-0.38432 -3.066975,-2.21442 -1.714177,-1.97268 -1.807116,-2.16012 -1.623176,-3.27391 0.107312,-0.64977 0.205365,-1.25367 0.217893,-1.34198 0.08942,-0.63014 -0.486762,-3.21109 -0.716856,-3.21109 -0.157521,0 -0.451267,-0.39737 -0.65277,-0.88305 -0.201501,-0.48568 -0.617487,-1.10802 -0.924413,-1.38295 -0.471903,-0.42275 -0.519517,-0.72015 -0.308442,-1.92667 0.137281,-0.78471 0.254132,-1.53153 0.259667,-1.65958 0.0056,-0.1281 -0.524201,-0.95893 -1.177194,-1.84639 -0.963987,-1.31009 -1.359662,-1.61353 -2.104052,-1.61353 -0.646465,0 -1.199453,-0.31396 -1.8754075,-1.06472 -0.527238,-0.5856 -0.871071,-1.15896 -0.764077,-1.27414 0.106997,-0.1152 0.02596,-0.64757 -0.180085,-1.18305 -0.273292,-0.71028 -0.572741,-0.97363 -1.107094,-0.97363 -0.827879,0 -2.59207,-1.71036 -2.402905,-2.32958 0.06707,-0.21992 1.00609,-0.5996 2.086435,-0.84372 1.926432,-0.4353 1.980055,-0.47555 2.78111,-2.08721 0.4492375,-0.90384 1.5777065,-2.51035 2.5077045,-3.57001 0.929998,-1.05967 2.209394,-2.95137 2.8431,-4.20381 1.033931,-2.04343 1.276711,-2.31304 2.365354,-2.62686 0.66724,-0.19235 2.42121699,-1.27827 3.897726,-2.41317 l 2.684578,-2.06342 5.9656795,-0.26368 c 10.236624,-0.45244 13.171039,-0.3988 13.774845,0.25182 0.496532,0.53502 0.490703,0.56194 -0.122046,0.56194 -0.848612,0 -1.572259,1.15965 -1.572259,2.51954 v 1.09219 l -1.572813,-0.1404 c -0.865054,-0.0772 -2.026596,-0.38412 -2.581246,-0.68199 -0.554647,-0.29786 -1.22272,-0.53545 -1.484598,-0.52798 -0.551402,0.0157 -1.714018,1.84707 -2.296702,3.61767 -0.221362,0.67262 -1.076787,2.45632 -1.900966,3.96379 -0.824176,1.50746 -1.497479,2.98013 -1.496206,3.27259 0.0013,0.29247 0.538194,0.8612 1.193149,1.26384 1.614844,0.99276 1.530841,2.05642 -0.384014,4.86249 -0.417042,0.61113 -0.44902,0.83383 -0.149153,1.03869 0.268117,0.18316 0.201133,0.26222 -0.225119,0.26567 -0.356737,0.003 -0.82768,0.40742 -1.142759,0.98162 -0.3506535,0.63905 -0.7080305,0.92426 -1.0337205,0.82501 -3.748602,-1.14232 -8.25752801,-1.44385 -9.03734401,-0.60435 -0.533103,0.57388 0.471279,2.54582 2.96827301,5.82766 1.394431,1.83275 3.105226,3.96351 3.801777,4.73505 0.857405,0.94969 1.468113,2.04565 1.890837,3.39312 0.884484,2.81951 0.818667,3.46108 -0.494218,4.81835 -1.147143,1.18594 -4.529113,3.19265 -5.211474,3.09227 -0.209754,-0.0309 -0.943268,-0.111 -1.630044,-0.17802 z"
       id="Id_yaounde-vi_6"><title
         id="title3215">Yaoundé VI</title></path><path
       style="opacity:1;fill:#ffffff;stroke-width:0.3095"
       d="m 25.461418,104.61096 -2.948428,-1.65529 -4.955901,0.0614 c -3.711457,0.0459 -5.2344,0.18706 -6.064897,0.56192 -1.6585545,0.74864 -1.8048495,0.67698 -1.5773955,-0.77234 0.1442795,-0.91932 0.06861,-1.47436 -0.272066,-1.99812 -0.259507,-0.39885 -0.4738,-1.018148 -0.476239,-1.376227 -0.0024,-0.358079 -0.197154,-1.012295 -0.432806,-1.45382 -0.235619,-0.441527 -0.848019,-1.742021 -1.360855,-2.889991 -0.762411,-1.706502 -1.268329,-2.348349 -2.773775,-3.518882 -1.304446,-1.014253 -2.232637,-1.482364 -3.183564,-1.605548 l -1.34228401,-0.173878 -0.381808,-2.078008 c -0.209996,-1.142907 -0.584702,-2.411355 -0.83267999,-2.818779 -0.247977,-0.407424 -0.355374,-0.917317 -0.238656,-1.133089 0.67964199,-1.25643 2.698037,-3.520708 3.8188,-4.284015 1.619112,-1.102714 2.139189,-2.035048 2.677616,-4.80011 l 0.424176,-2.17842 -1.316871,-3.667955 c -0.843872,-2.350491 -1.316871,-4.177344 -1.316871,-5.086145 0,-1.193432 -0.236365,-1.768029 -1.491422,-3.62562 -0.82028701,-1.214086 -1.49142701,-2.518558 -1.49142701,-2.898826 0,-0.380268 0.635122,-1.443829 1.41138101,-2.363467 0.776257,-0.919636 1.414037,-1.696363 1.417296,-1.72606 0.0033,-0.0297 0.623556,0.09816 1.378442,0.284121 l 1.372541,0.338116 1.142481,2.871584 c 1.020132,2.564033 1.333018,3.032281 2.921322,4.371969 1.3797765,1.163805 1.9600485,1.932584 2.5866925,3.42704 0.740087,1.764961 0.983151,2.032451 2.896022,3.187202 1.879848,1.134808 2.242801,1.525782 3.638526,3.919682 1.493656,2.561898 1.53801,2.703681 1.212732,3.877211 -0.285969,1.031818 -0.217075,1.782733 0.450524,4.910835 0.43344,2.031018 0.980949,4.012801 1.216626,4.403959 0.235676,0.391161 0.425654,1.402656 0.422193,2.247768 -0.0062,1.500514 -0.04822,1.570294 -1.78969,2.973935 -1.617989,1.304027 -1.783438,1.547749 -1.783438,2.627288 0,0.946919 0.176924,1.325539 0.866348,1.854007 0.476485,0.365244 1.141256,0.664083 1.477262,0.664083 1.187264,0 6.835787,2.569672 7.262934,3.304123 0.747248,1.284834 1.190298,3.946527 0.971185,5.834527 -0.114094,0.98316 -0.292542,1.84417 -0.396516,1.91335 -0.103974,0.0692 -1.515846,-0.61911 -3.13751,-1.52951 z"
       id="Id_yaounde-ii_2"><title
         id="title3095">Yaoundé II</title></path><path
       style="opacity:1;fill:#ffffff;stroke-width:0.3095"
       d="m 33.156837,109.05983 c -0.467262,-0.43221 -1.223022,-0.95236 -1.679466,-1.15591 -0.456476,-0.20355 -0.829963,-0.49705 -0.829963,-0.65224 0,-0.15518 -0.195012,-0.28214 -0.433386,-0.28214 -0.478708,0 -0.403351,-1.9862 0.186032,-4.90261 0.348757,-1.72571 0.138888,-3.125145 -0.468638,-3.125145 -0.223483,0 -0.754827,-0.49186 -1.180783,-1.093027 -0.798939,-1.12763 -3.554009,-2.476958 -7.42464,-3.636294 -1.640966,-0.491516 -1.715131,-0.559109 -1.715131,-1.563656 0,-0.900838 0.253825,-1.264593 1.787356,-2.561613 l 1.787355,-1.51168 -0.18961,-1.801 c -0.1043,-0.990547 -0.570842,-2.924341 -1.036797,-4.297318 -0.652838,-1.923692 -0.893057,-3.323199 -1.047203,-6.10108 L 20.711911,72.771351 19.281793,70.482175 C 18.137097,68.649806 17.438225,67.918334 15.77971,66.816588 13.968995,65.61374 13.601283,65.200445 12.863631,63.539033 12.254693,62.167509 11.541914,61.221677 10.305062,60.14385 8.9488485,58.962034 8.4018265,58.195499 7.6875795,56.475852 c -0.496632,-1.195677 -0.90295,-2.309975 -0.90295,-2.476217 0,-0.166243 0.767639,-0.345596 1.705854,-0.398562 l 1.7058875,-0.0963 0.785,-1.694373 c 0.431776,-0.931906 1.087063,-2.040477 1.456195,-2.463494 0.648423,-0.743027 0.718255,-0.75375 2.057974,-0.316037 1.664137,0.543703 8.515163,0.616801 11.352932,0.121125 3.231975,-0.564529 12.241249,0.985834 15.301579,2.633172 0.60869,0.327644 1.63217,0.595715 2.27444,0.595715 2.41281,0 3.01789,0.308098 4.12249,2.099039 0.95621,1.550354 1.1843,1.725891 2.81839,2.169021 1.57559,0.427256 1.9711,0.427868 3.47401,0.0054 1.77131,-0.49795 3.62797,-1.935445 4.03083,-3.120814 0.12542,-0.369024 0.99791,-1.209184 1.93888,-1.867027 l 1.7108,-1.196074 0.0846,3.604398 c 0.0833,3.551686 0.0989,3.622785 1.067,4.861587 0.95598,1.223307 1.04615,1.262267 3.34572,1.44566 1.83439,0.146295 2.67687,0.386794 3.76468,1.074669 0.77082,0.487407 1.48098,1.024735 1.5782,1.194062 0.2693,0.469071 -0.61743,2.091303 -1.47296,2.694771 -0.41852,0.295212 -0.76097,0.800023 -0.76097,1.121801 0,1.303189 -0.85434,1.591017 -6.30238,2.12325 -5.15942,0.504037 -5.27659,0.501592 -6.79281,-0.141779 -0.84857,-0.360067 -1.90699,-0.653338 -2.35208,-0.651717 -1.30072,0.0048 -7.30195,3.279517 -7.77829,4.244479 -0.34588,0.700658 -0.33685,1.4109 0.0603,4.7426 l 0.46709,3.918531 -0.87638,1.671668 c -0.75603,1.442116 -0.83676,1.820365 -0.58789,2.754509 0.43467,1.631617 -0.37064,4.56891 -1.75332,6.394881 -1.48467,1.960674 -1.74977,2.717726 -2.11759,6.046826 -0.29712,2.689118 -0.36322,2.866898 -1.46466,3.940068 -0.63444,0.61813 -1.30776,1.4473 -1.49631,1.84258 -0.18854,0.39529 -0.67448,0.80833 -1.079896,0.91788 -0.696667,0.18823 -1.048928,0.77174 -0.465904,0.77174 0.451331,0 -0.829164,2.52404 -1.466897,2.89147 -0.3267,0.18821 -0.594003,0.61762 -0.594003,0.9542 0,0.9654 -0.449055,1.0216 -1.368287,0.17129 z"
       id="Id_yaounde-i_1"
       inkscape:label=""><title
         id="title3109">Yaoundé I</title></path><path
       style="opacity:1;fill:#ffffff;stroke-width:0.22166"
       d="m 93.138111,136.02995 0.29811,-1.28443"
       id="path2282" /><path
       style="opacity:1;fill:#ffffff;stroke-width:0.22166"
       d="m 71.959861,81.762423 c 0.75084,1.386342 0.59658,2.665089 0.59658,4.174426"
       id="path2284" /><path
       style="opacity:1;fill:#ffffff;stroke-width:0.22166"
       d="M 108.64884,127.03889 95.822701,106.48787"
       id="path2286" /><path
       style="opacity:1;fill:#ffffff;stroke-width:0.22166"
       d="m 106.85923,125.75444 1.19309,-0.64222"
       id="path2288" /><path
       style="opacity:1;fill:#ffffff;stroke-width:0.22166"
       d="m 72.258141,85.615739 c -0.50434,-0.630877 0.54605,-2.944402 0,-3.532206 -0.67447,-0.726092 -0.59657,1.471352 -0.59657,-0.963332"
       id="path2290" /><path
       style="opacity:1;fill:#ffffff;stroke-width:0.3095"
       d="m 34.823395,111.08359 c 0,-0.14339 0.201353,-0.26074 0.447423,-0.26074 0.298303,0 0.447424,-0.3211 0.447424,-0.96333 0,-0.76694 0.128709,-0.96332 0.631352,-0.96332 0.476955,0 0.594549,-0.15162 0.480768,-0.61997 -0.09286,-0.38222 0.101716,-0.87511 0.507339,-1.28536 0.36188,-0.36596 1.02895,-1.50101 1.4824,-2.52232 0.60553,-1.36389 1.11498,-2.02441 1.91871,-2.48769 l 1.09429,-0.63074 0.14912,-3.050549 c 0.15736,-3.218451 0.4168,-4.006809 2.04059,-6.200647 1.26751,-1.712485 2.25621,-5.047371 2.02793,-6.840265 -0.15054,-1.182472 -0.047,-1.630853 0.64993,-2.813848 l 0.82898,-1.407232 -0.3676,-3.009232 c -0.20217,-1.655073 -0.37653,-3.673 -0.38743,-4.484273 l -0.0199,-1.475046 3.23902,-1.655774 c 1.78148,-0.910675 3.48839,-1.655774 3.79317,-1.655774 0.30478,0 1.14797,0.244144 1.87379,0.542541 1.19285,0.490426 1.80984,0.50565 6.42307,0.158488 2.80691,-0.211229 5.43902,-0.381521 5.84919,-0.378425 0.73496,0.0055 0.73152,0.01767 -0.2399,0.841739 -0.82663,0.701254 -0.95578,0.982138 -0.80087,1.741458 0.1503,0.736844 0.0423,1.005789 -0.58042,1.445026 -0.4208,0.296822 -0.76511,0.665615 -0.76511,0.819539 0,0.15392 0.47626,0.751424 1.05837,1.327785 0.84166,0.833373 1.14935,1.479247 1.50288,3.154573 0.44005,2.085401 0.46054,2.115101 2.03217,2.944892 1.53599,0.810957 1.59306,0.888722 1.75254,2.388888 0.19028,1.790054 -0.2353,2.532525 -1.68323,2.936427 -1.28134,0.35744 -1.60829,1.823151 -0.8295,3.718517 0.31525,0.767182 0.51444,1.738803 0.44268,2.159161 -0.0717,0.420354 0.13876,1.59858 0.46776,2.618275 0.59487,1.843674 0.59496,1.862149 0.0153,3.317998 -0.32059,0.805202 -0.58264,1.993888 -0.5823,2.641538 v 1.17754 l -2.01402,-0.0734 c -1.10775,-0.0403 -3.91973,-0.24384 -6.24883,-0.4522 l -4.23477,-0.37884 -1.58177,1.1682 c -1.76953,1.30685 -4.94275,2.78673 -5.97557,2.78681 -0.37239,1e-5 -1.68377,0.3361 -2.91422,0.74684 -1.87816,0.62698 -2.51875,1.03917 -3.99232,2.56883 -1.35333,1.4049 -1.96796,1.82494 -2.68454,1.83477 -0.51116,0.007 -1.90253,0.1966 -3.091919,0.4213 -1.189423,0.2247 -2.162587,0.29122 -2.162587,0.14775 z"
       id="path2292" /><path
       style="opacity:1;fill:#ffffff;stroke-width:0.3095"
       d="m 35.718242,110.34119 c 0,-0.26492 0.268459,-0.77067 0.596572,-1.12389 0.328115,-0.35322 0.596575,-0.85044 0.596575,-1.10493 0,-0.2545 0.132206,-0.55067 0.293798,-0.65818 0.161564,-0.10755 0.843694,-1.20908 1.515804,-2.44794 0.70877,-1.30651 1.6189,-2.51201 2.16705,-2.87045 0.923,-0.60354 0.95267,-0.69675 1.27117,-3.996238 0.31272,-3.239329 0.38233,-3.467312 1.69281,-5.542732 1.63942,-2.596396 2.30619,-4.624715 2.30619,-7.01541 0,-1.328485 0.19315,-2.13277 0.76398,-3.181364 0.73429,-1.348817 0.75166,-1.498647 0.44742,-3.853456 -0.17409,-1.347537 -0.31652,-3.358275 -0.31652,-4.468309 v -2.01824 l 2.75913,-1.387736 c 2.18003,-1.096469 3.04086,-1.370168 4.10139,-1.304038 0.73827,0.04604 4.22477,0.07173 7.74782,0.05709 5.88104,-0.02442 6.35123,0.0144 5.74201,0.473736 -0.46689,0.352042 -0.66356,0.827238 -0.66356,1.603292 0,0.75519 -0.18809,1.229412 -0.59659,1.504027 -0.83485,0.561277 -0.7443,1.258501 0.30387,2.339557 0.59575,0.614432 1.10328,1.661911 1.4999,3.095533 0.56337,2.036491 0.68707,2.218203 2.05629,3.020447 1.4509,0.850101 1.79534,1.434667 1.80329,3.060399 0.005,0.897018 -0.56211,1.552918 -1.85198,2.144246 -1.09678,0.502805 -1.32544,1.693261 -0.72151,3.755807 0.26926,0.919575 0.48957,2.030406 0.48957,2.468507 0,0.438102 0.21055,1.559747 0.46786,2.492546 0.42495,1.540475 0.42495,1.811436 0,2.954766 -0.25731,0.692325 -0.46786,1.83384 -0.46786,2.53672 0,1.26347 -0.0127,1.27787 -1.11857,1.27333 -0.6152,-0.003 -3.4559,-0.21 -6.31264,-0.46104 l -5.19412,-0.45643 -1.31223,0.97195 c -1.86108,1.37842 -4.70445,2.70128 -6.79323,3.16047 -2.90799,0.6393 -4.48245,1.43018 -6.37522,3.20247 -1.63694,1.53271 -1.95419,1.69498 -3.81982,1.95384 -2.800914,0.38862 -3.078649,0.37252 -3.078649,-0.17835 z"
       id="Id_yaounde-v_5"><title
         id="title3101">Yaoundé V</title></path><path
       style="opacity:1;fill:#000000;stroke-width:0.3095"
       d="m -18.420451,119.81685 c -1.148401,-0.50595 -4.235643,-1.58344 -6.860559,-2.39443 -4.981648,-1.53913 -5.196941,-1.67077 -6.795301,-4.15506 -0.31671,-0.49225 -2.101807,-1.68551 -4.419259,-2.95409 -2.891372,-1.58275 -3.960108,-2.33262 -4.169509,-2.9255 -0.154849,-0.43848 -0.3985,-2.12082 -0.541465,-3.73855 -0.317046,-3.58838 -0.395667,-3.48362 3.895021,-5.191693 1.695082,-0.674803 5.699426,-2.450391 8.898523,-3.945754 3.199098,-1.495358 6.689048,-3.074295 7.755402,-3.508752 6.025245,-2.454764 16.1066125,-5.868953 17.3297835,-5.868953 0.381514,0 0.779838,0.734397 1.477281,2.723694 0.525204,1.498034 1.10578799,2.845476 1.29018699,2.994325 0.184397,0.148845 0.897307,0.443502 1.58424201,0.654801 2.857257,0.878875 5.142134,3.852624 6.630077,8.628942 1.028075,3.3001 1.027341,3.3015 -1.809793,3.3015 h -2.43187 l -3.31011901,2.28581 c -4.15087699,2.8664 -4.70311699,3.42633 -8.01946599,8.13104 -3.6797505,5.22022 -4.5572075,6.21186 -5.8345545,6.59381 -1.618472,0.48393 -2.367383,0.38268 -4.668621,-0.63114 z"
       id="path2365" /><path
       style="opacity:1;fill:#ffffff;stroke-width:0.3095"
       d="m -21.999866,118.45335 c -2.953028,-1.0502 -5.959432,-2.13306 -6.680932,-2.40635 -0.829069,-0.31402 -1.926729,-1.17029 -2.982838,-2.32685 -1.161954,-1.27243 -2.629323,-2.37842 -4.816328,-3.63015 -1.729913,-0.9901 -3.37913,-2.07839 -3.664982,-2.41841 -0.343435,-0.40853 -0.635266,-1.62865 -0.860456,-3.59748 l -0.340752,-2.97928 0.774559,-0.71721 c 0.425979,-0.394464 1.758763,-1.118316 2.961707,-1.60856 1.202978,-0.490247 5.677129,-2.480063 9.942614,-4.421821 9.711931,-4.421124 23.1986915,-9.296716 24.3737035,-8.811317 0.241056,0.09959 0.885884,1.34814 1.432956,2.774582 0.95056899,2.478513 1.05518999,2.6179 2.35910499,3.143077 1.87226501,0.754091 3.29442001,1.801522 4.30132201,3.167974 1.09708,1.488815 2.910582,5.718385 3.098473,7.226405 0.138415,1.11078 0.09457,1.18472 -0.819292,1.38147 -0.531027,0.1143 -1.653451,0.20868 -2.494216,0.20967 -1.38599,0.002 -1.831432,0.21267 -4.77088801,2.2604 -3.61175599,2.51606 -4.88235099,3.86404 -8.90434199,9.44674 -1.5222545,2.11294 -3.2238275,4.17206 -3.7812675,4.57581 -1.525399,1.10482 -3.050025,0.89292 -9.128146,-1.2687 z"
       id="Id_yaounde-vii_7"><title
         id="title3217">Yaoundé VII</title></path></g></svg>
